<svg xmlns="http://www.w3.org/2000/svg" width="410.375" height="436" viewBox="0 0 410.375 436"><g fill-rule="evenodd" clip-rule="evenodd"><path fill="#FFF" d="M322.506 436c-8.014-19.98-25.707-44.68-43.582-81.438-12.752-26.22-21.907-58.675-26.422-72.67-11.018 14.336-42.417 20.965-50.212 16.178 14.027-.185 26.632-4.826 38.49-11.77 5.692-3.335 9.677-8.28 11.413-14.62 3.518-12.826 6.644-25.76 10.068-38.61 1.243-4.66-.05-8.405-3.367-11.603-5.298-5.106-10.65-10.158-16.007-15.206-.456-.43-1.098-.663-1.287-.77-.077 4.244-.15 8.386-.223 12.528-1.58-4.207-2.027-8.43-3.358-12.352-1.343-3.964-4.67-5.1-8.47-3.37-2.9 1.32-5.62 3.034-8.363 4.543 1.914 3.515 3.693 6.64 5.33 9.837 1.185 2.31.807 4.192-1.824 5.327-3.79 1.638-7.544 3.354-11.3 5.067-2.024.928-2.92.045-3.853-1.778-1.582-3.092-3.497-6.02-5.388-8.94-.428-.66-1.31-1.42-2.014-1.45-6.083-.28-11.13 6.78-8.488 12.168 3.776 7.702 10.87 13.614 21.696 11.173 4.965-1.12 9.75-3.023 14.656-4.428 2.8-.802 5.684-1.313 8.53-1.957.077.345.157.69.236 1.035l-7.25 2.976c.01.375.017.753.026 1.128l13.982 4.438c-.324.172-.778.638-1.148.577-4.506-.718-8.988-1.602-13.504-2.25-2.06-.295-4.22-.445-6.267-.166-4.515.614-8.98 1.588-13.478 2.328-3.02.498-6.57-.02-9 1.413-9.223 5.448-14.328 13.545-13.63 24.676.137 2.178.106 4.37.153 6.555-.312.032-.624.068-.935.102-.592-3.132-1.5-6.246-1.686-9.404-.183-3.127.365-6.3.61-9.69-7.242 1.924-12.58 6.5-18.092 10.977 1.815-2.547 3.632-5.093 5.896-8.268-9.6 2.323-18.44 4.465-27.124 6.566-.737 3.405 1.02 4.445 3.492 5.298 8.104 2.796 16.15 5.754 24.22 8.65-.02.292-.04.582-.062.874-5.647 1.365-11.295 2.73-17.333 4.192 4.81 7.432 10.704 12.696 17.32 17.33 6.03 4.223 11.92 5.244 18.078.444.317-.246.794-.29 1.196-.427l.667.986c-3.217 2.578-7.54 3.782-10.673 6.296 3.55 14.445 13.903 50.698 18.684 73.545 5.417 25.892 9.085 35.61 13.593 53.96h106.003zm84.963-284.604c-.093-.322-.187-.647-.278-.972-50.77 8.032-101.54 16.062-152.312 24.093v1.075c12.25 4.185 24.5 8.367 36.75 12.55l-.02.813c-13.877 3.524-27.755 7.047-41.796 10.61 2.595 6.86 5.02 12.715 10.413 17.235 3.982 3.34 6.816 8.05 10.512 12.573l103.37-25.967-.042-.923-46.378-16.354 79.78-34.734zM2.905 307.18c.006.195.01.39.018.584l157.405-28.232-.057-1.03-33.57-11.15.187-1.032c1.345-.367 2.682-.766 4.034-1.098 18.31-4.48 36.606-9.027 54.953-13.358 3.258-.77 4.43-2.528 4.62-5.55-8.994.685-8.994.685-15.926 4.944-10.115 6.216-17.315 5.77-25.867-2.272-5.254-4.943-10.13-10.32-14.84-15.79-1.648-1.913-2.907-2.183-5.18-1.613-26.18 6.55-52.385 12.987-78.58 19.47-1.04.256-2.045.654-3.92 1.264l42.414 16.23.143 1.283c-28.612 12.447-57.223 24.9-85.834 37.35zM173.04 184.362c-2.76.69-5.396 1.27-7.983 2.01-8.598 2.463-12.833 10.412-10.424 19.018 2.145 7.66 6.354 14.195 10.428 20.896 3.282 5.396 7.42 9.8 12.31 13.625 3.75 2.935 7.69 3.98 12.18 1.426 2.096-1.19 4.46-1.913 7.084-3.007-1.205-1.52-1.437-1.826-1.68-2.122-4.012-4.853-7.758-9.752-5.294-16.716.26-.735-.39-1.978-.925-2.78-6.677-10.03-12.445-20.497-15.694-32.35zm70.163 16.632c.028-.11.112-.245.08-.343-2.704-8.474-5.492-16.924-8.11-25.423-3.24-10.525-6.793-13.09-17.67-12.43-8.725.53-13.808 6.986-12.048 15.574 1.94 9.466 6.212 17.977 11.15 26.55 2.32-1.265 4.478-2.387 6.582-3.6 6.51-3.75 13.007-6.768 19.637-.237.047.047.24-.055.38-.092zm-94.378 1.88c-10.548.997-17.986 16.053-12.5 25.072 5.27 8.663 12.068 16.077 20.18 22.19 1.35 1.018 3.335 1.974 4.895 1.8 5.64-.636 10.602-2.852 14.144-7.828-12.773-11.3-19.78-26.16-26.72-41.235zm50.83-30.097c-3.887.433-8.654.6-13.247 1.582-4.762 1.016-9.53 6.314-8.795 9.56 2.607 11.482 7.84 21.688 15.277 30.476l18.186-6.95c-3.814-11.573-7.427-22.544-11.42-34.668zm-31.828-91.336l-.865.12 4.03 55.576 7.32-8.625c2.232 11.992 4.298 23.084 6.364 34.176.298-.04.597-.08.896-.122.855-21.24 1.712-42.482 2.604-64.61l-12.167 12.915c-2.874-10.337-5.53-19.884-8.183-29.43zm-72.107 90.82c-10.773-3.396-20.595-6.49-30.418-9.583l-.272.535c16.396 9.054 32.793 18.11 49.862 27.534l-3.094-10.776c11.236 4.64 21.786 8.992 32.336 13.347l.382-.7-53.03-37.618 4.234 17.26zm194.41-80.49c-.208-.132-.417-.265-.626-.396l-36.537 42.742 11.088-.75c-6.9 10.2-13.285 19.643-19.668 29.082.197.153.395.308.594.46 15.67-14.61 31.338-29.224 47.68-44.464-6.356.22-11.668.402-17.73.61l15.2-27.285zM135.04 340.823c-6.583 9.736-12.71 18.803-18.84 27.87l.648.502c15.08-14.057 30.157-28.116 45.915-42.807l-17.22.643 14.67-26.343c-.205-.14-.41-.276-.614-.414-11.583 13.547-23.164 27.096-35.296 41.286 3.956-.27 6.954-.478 10.735-.738zm77.33-115.292l14.037-5.417c-3.89-3.613-7.098-6.595-10.38-9.645-3.02 1.11-6.23 2.295-9.563 3.52 1.953 3.818 3.8 7.428 5.907 11.542z"/><path fill="#FFF" d="M185.815 309.997l9.57-7.677-.667-.984c-.402.138-.88.18-1.196.427-6.158 4.8-12.048 3.776-18.08-.444-6.614-4.636-12.51-9.9-17.32-17.333l17.335-4.19.06-.875c-8.068-2.896-16.115-5.854-24.22-8.648-2.47-.853-4.228-1.893-3.49-5.298l27.124-6.567c-2.263 3.174-4.08 5.72-5.895 8.27 5.51-4.48 10.85-9.057 18.09-10.98-.243 3.394-.79 6.564-.61 9.692.186 3.158 1.095 6.27 1.688 9.404l.936-.104c-.048-2.186-.018-4.377-.154-6.556-.698-11.13 4.407-19.228 13.63-24.675 2.428-1.434 5.98-.915 8.998-1.412 4.5-.74 8.964-1.714 13.478-2.33 2.047-.278 4.207-.127 6.267.167 4.516.648 8.996 1.533 13.503 2.252.37.06.824-.405 1.15-.58-4.7-1.49-9.343-2.963-13.983-4.438-.01-.376-.02-.753-.027-1.13 2.416-.99 4.834-1.982 7.25-2.975-.08-.345-.158-.69-.236-1.035-2.847.643-5.73 1.154-8.53 1.957-4.907 1.403-9.69 3.307-14.656 4.43-10.826 2.44-17.92-3.472-21.695-11.174-2.642-5.387 2.404-12.447 8.487-12.17.705.033 1.586.79 2.015 1.453 1.89 2.92 3.806 5.848 5.387 8.94.934 1.82 1.827 2.704 3.853 1.778 3.756-1.715 7.512-3.43 11.3-5.066 2.63-1.138 3.01-3.018 1.825-5.33-1.638-3.195-3.416-6.32-5.33-9.836 2.743-1.51 5.463-3.223 8.363-4.54 3.798-1.73 7.125-.596 8.47 3.367 1.33 3.92 1.774 8.144 3.356 12.35l.223-12.53c.188.11.83.343 1.286.774 5.354 5.048 10.708 10.1 16.007 15.206 3.316 3.196 4.61 6.943 3.367 11.603-3.425 12.852-6.55 25.785-10.066 38.61-1.738 6.34-5.723 11.284-11.414 14.62-11.86 6.944-24.464 11.586-38.49 11.77 7.795 4.788 30.648 1.336 47.475-9.5 13.307 33.194-56.505 53.578-64.435 21.304zm15.957-6.913c-.654.16-1.306.323-1.958.486 1.518 11.44 5.22 22.337 9.616 33.055l-7.658-33.54zm13.25 11.587c.38-.124.76-.25 1.14-.376-1.68-4.362-3.36-8.726-5.042-13.09-.48.19-.96.38-1.44.568 1.78 4.3 3.56 8.6 5.342 12.9zM407.47 151.396l-79.78 34.734 46.378 16.354.042.923-103.37 25.967c-3.696-4.524-6.53-9.234-10.513-12.573-5.393-4.52-7.818-10.374-10.413-17.233l41.796-10.61.02-.813-36.75-12.55v-1.076c50.77-8.03 101.54-16.06 152.312-24.093l.277.97z"/><path fill="#FFF" d="M2.906 307.18l85.832-37.352-.143-1.284-42.413-16.23c1.874-.608 2.88-1.007 3.918-1.263 26.196-6.48 52.402-12.918 78.58-19.47 2.273-.568 3.533-.3 5.18 1.614 4.71 5.47 9.587 10.847 14.84 15.79 8.553 8.043 15.753 8.488 25.87 2.272 6.932-4.26 6.932-4.26 15.925-4.944-.19 3.02-1.362 4.78-4.62 5.55-18.347 4.33-36.642 8.877-54.953 13.358-1.352.332-2.69.73-4.034 1.098l-.187 1.03c11.19 3.72 22.38 7.437 33.57 11.152.02.343.038.687.057 1.03-52.468 9.41-104.937 18.82-157.405 28.232l-.016-.583zM173.04 184.363c3.25 11.852 9.02 22.318 15.692 32.35.534.8 1.186 2.043.925 2.778-2.464 6.965 1.282 11.864 5.293 16.717.244.296.476.602 1.68 2.12-2.623 1.095-4.986 1.816-7.082 3.008-4.492 2.555-8.43 1.51-12.18-1.425-4.89-3.824-9.03-8.23-12.31-13.625-4.073-6.7-8.283-13.234-10.428-20.895-2.408-8.605 1.827-16.555 10.424-19.02 2.59-.737 5.224-1.315 7.987-2.007zM243.203 200.995c-.14.037-.332.14-.38.093-6.63-6.53-13.126-3.514-19.636.236-2.104 1.214-4.263 2.336-6.583 3.602-4.938-8.574-9.21-17.085-11.15-26.55-1.76-8.59 3.324-15.045 12.048-15.576 10.878-.66 14.432 1.905 17.67 12.43 2.62 8.5 5.407 16.95 8.112 25.423.03.097-.053.233-.08.342z"/><path fill="#FFF" d="M148.825 202.875c6.94 15.074 13.945 29.935 26.72 41.234-3.543 4.976-8.506 7.19-14.145 7.826-1.56.175-3.544-.78-4.896-1.798-8.11-6.114-14.908-13.528-20.18-22.19-5.485-9.02 1.953-24.076 12.5-25.073zM199.655 172.778l11.42 34.668c-5.412 2.067-11.59 4.43-18.185 6.95-7.436-8.788-12.67-18.994-15.277-30.478-.736-3.244 4.033-8.543 8.795-9.56 4.593-.98 9.36-1.147 13.247-1.58zM167.827 81.442l8.183 29.43 12.167-12.913c-.89 22.126-1.748 43.367-2.604 64.608l-.896.12c-2.066-11.09-4.132-22.183-6.364-34.175l-7.32 8.625-4.03-55.576.864-.12zM95.72 172.26L91.485 155c18.257 12.953 35.644 25.287 53.03 37.62l-.382.7c-10.55-4.354-21.1-8.708-32.336-13.347l3.094 10.775-49.86-27.534.27-.536c9.825 3.094 19.647 6.188 30.42 9.583zM262.915 17.816l-5.2 30.797c5.644-2.223 10.59-4.17 16.505-6.503l-30.064 57.85c-.236-.077-.475-.157-.713-.236l8.81-33.986c-3.54 1.533-6.468 2.802-10.198 4.416 6.892-17.965 13.516-35.23 20.138-52.5l.722.162zM141.768 122.867c-5.958-9.64-11.915-19.284-18.347-29.697l-3.893 10.342-24.28-51.41c.167-.104.333-.203.498-.303 6.184 8.283 12.367 16.57 19.08 25.562l6.69-16.428 20.944 61.513-.692.42zM135.04 340.824l-10.736.738 35.295-41.286.612.414-14.67 26.343 17.22-.644c-15.756 14.69-30.835 28.75-45.914 42.806l-.648-.503c6.13-9.066 12.257-18.132 18.84-27.87zM212.37 225.532l-5.906-11.54c3.334-1.227 6.543-2.41 9.562-3.52 3.283 3.05 6.492 6.03 10.38 9.644l-14.035 5.416z"/><path fill="#2D2D2D" d="M201.772 303.084l7.658 33.54c-4.396-10.717-8.1-21.612-9.616-33.054.653-.163 1.305-.325 1.958-.486zM215.022 314.67l-5.343-12.897c.48-.188.96-.38 1.44-.57 1.68 4.366 3.36 8.73 5.042 13.092l-1.14.376z"/><path fill="#FFF" d="M107.3 322.753c-9.587 3.273-19.174 6.546-29.56 10.09 4.643 3.903 8.71 7.325 13.58 11.418l-65.187 1.106-.132-.74c11.064-2.74 22.126-5.476 34.083-8.437-3.034-2.38-5.542-4.353-8.74-6.864l55.757-7.288.2.715z"/></g></svg>