<svg xmlns="http://www.w3.org/2000/svg" width="410.375" height="436" viewBox="0 0 410.375 436"><g fill-rule="evenodd" clip-rule="evenodd"><path fill="#FFF" d="M130.723 436c7.362-19.98 23.412-44.19 39.833-80.948 11.713-26.22 20.123-58.675 24.27-72.67 10.12 14.336 38.966 20.965 46.126 16.178-12.886-.185-24.464-4.826-35.358-11.77-5.228-3.335-8.888-8.28-10.483-14.62-3.23-12.826-6.1-25.76-9.247-38.61-1.14-4.66.047-8.405 3.094-11.603 4.867-5.106 9.785-10.158 14.704-15.206.42-.43 1.01-.663 1.184-.77.07 4.244.137 8.386.203 12.528 1.453-4.207 1.863-8.43 3.084-12.352 1.234-3.964 4.29-5.1 7.78-3.37 2.665 1.32 5.163 3.034 7.684 4.543-1.76 3.515-3.393 6.64-4.896 9.837-1.088 2.31-.74 4.192 1.676 5.327 3.48 1.638 6.93 3.354 10.38 5.067 1.86.928 2.683.045 3.54-1.778 1.452-3.092 3.212-6.02 4.95-8.94.392-.66 1.2-1.42 1.85-1.45 5.587-.28 10.223 6.78 7.796 12.168-3.47 7.702-9.985 13.614-19.93 11.173-4.56-1.12-8.956-3.023-13.465-4.428-2.57-.802-5.22-1.313-7.834-1.957-.07.345-.145.69-.218 1.035l6.66 2.976-.023 1.128-12.846 4.438c.298.172.714.638 1.056.577 4.14-.718 8.256-1.602 12.403-2.25 1.893-.295 3.877-.445 5.757-.166 4.146.614 8.248 1.588 12.382 2.328 2.77.498 6.034-.02 8.264 1.413 8.474 5.448 13.163 13.545 12.522 24.676-.126 2.178-.098 4.37-.14 6.555.285.032.57.068.858.102.543-3.132 1.38-6.246 1.55-9.404.167-3.127-2.41-13.416-2.636-16.807 6.65 1.924 12.344 3.355 17.405 7.833-1.668-2.547 9.93 5.84 4.352 1.16 8.82 2.323 4.06 2.9 12.184 0 .678 3.406-.25 14.195-7.252 24.077-4.417 7.432-8.48 13.352-14.558 17.985-5.54 4.223-10.276 6.925-15.933 2.125-.29-.246-.73-.29-1.1-.427-.203.33-.407.657-.612.986 2.957 2.578 6.926 3.782 9.806 6.296-3.26 14.445-12.77 50.698-17.162 73.545-4.976 25.892-6.908 34.887-11.05 53.237-27.666-.477-85.48.233-98.605.233zM267.678 184.728c2.537.69 4.958 1.27 7.334 2.01 7.898 2.463 11.788 10.412 9.576 19.018-1.97 7.66-5.838 14.194-9.58 20.895-3.013 5.397-6.814 9.802-11.306 13.626-3.446 2.934-7.062 3.98-11.19 1.425-1.923-1.19-4.095-1.912-6.505-3.006 1.107-1.52 1.32-1.825 1.545-2.12 3.684-4.854 7.126-9.753 4.862-16.717-.24-.735.358-1.978.85-2.78 6.13-10.03 11.43-20.498 14.414-32.35zm-64.45 16.63c-.027-.108-.104-.244-.075-.342 2.484-8.474 5.046-16.924 7.45-25.423 2.977-10.524 6.24-13.09 16.233-12.43 8.013.53 12.683 6.987 11.066 15.575-1.782 9.466-5.707 17.977-10.243 26.55-2.132-1.265-4.114-2.387-6.048-3.6-5.98-3.75-11.947-6.768-18.037-.237-.044.048-.22-.054-.348-.09zm86.694 1.88c9.69.998 16.522 16.054 11.483 25.073-4.842 8.664-11.086 16.078-18.537 22.192-1.242 1.017-3.064 1.973-4.497 1.798-5.18-.635-9.738-2.85-12.992-7.827 11.734-11.3 18.17-26.16 24.544-41.234zm-46.693-30.095c3.57.433 7.95.6 12.168 1.582 4.374 1.016 8.756 6.314 8.08 9.56-2.396 11.482-7.203 21.688-14.035 30.476l-16.704-6.948c3.5-11.575 6.82-22.545 10.49-34.67zm-11.68 52.753l-12.895-5.417c3.57-3.614 6.52-6.596 9.536-9.646 2.774 1.11 5.722 2.295 8.784 3.52-1.792 3.818-3.49 7.428-5.425 11.542z"/><path fill="#FFF" d="M267.678 184.728c-2.984 11.852-8.283 22.318-14.415 32.35-.49.8-1.09 2.043-.85 2.778 2.265 6.964-1.178 11.863-4.86 16.716-.226.296-.44.602-1.546 2.12 2.41 1.095 4.582 1.816 6.506 3.008 4.127 2.555 7.743 1.51 11.19-1.425 4.49-3.824 8.292-8.23 11.306-13.625 3.74-6.7 7.607-13.234 9.578-20.895 2.212-8.605-1.678-16.555-9.576-19.02-2.376-.738-4.797-1.316-7.334-2.007zM203.227 201.36c.127.036.305.138.35.092 6.09-6.53 12.057-3.514 18.036.236 1.934 1.214 3.916 2.336 6.047 3.602 4.536-8.574 8.46-17.085 10.243-26.55 1.616-8.59-3.054-15.045-11.066-15.576-9.993-.66-13.257 1.905-16.233 12.43-2.404 8.5-4.966 16.95-7.45 25.423-.03.097.046.233.073.342zM289.922 203.24c-6.374 15.073-12.81 29.934-24.544 41.233 3.254 4.977 7.812 7.192 12.993 7.827 1.434.175 3.256-.78 4.498-1.798 7.45-6.114 13.695-13.528 18.537-22.19 5.04-9.02-1.794-24.076-11.483-25.073zM243.23 173.143c-3.67 12.124-6.988 23.095-10.49 34.668l16.703 6.95c6.832-8.787 11.64-18.993 14.034-30.477.677-3.244-3.705-8.543-8.08-9.56-4.218-.98-8.597-1.148-12.168-1.58zM231.55 225.896l5.425-11.54c-3.062-1.227-6.01-2.41-8.783-3.52-3.018 3.05-5.965 6.03-9.536 9.644 4.588 1.927 8.763 3.68 12.893 5.416z"/><path fill="#2D2D2D" d="M241.284 303.448c-2.345 11.18-4.688 22.36-7.034 33.54 4.037-10.717 7.44-21.612 8.834-33.054-.6-.163-1.198-.325-1.8-.486zM229.114 315.035c1.636-4.3 3.27-8.6 4.907-12.898-.44-.188-.882-.38-1.323-.57-1.544 4.366-3.087 8.73-4.632 13.092l1.05.375z"/></g></svg>