<svg xmlns="http://www.w3.org/2000/svg" width="684.375" height="331.25" viewBox="0 0 684.375 331.25"><path fill="#FFF" d="M678.137 150.798l-.2 4.95-.112 2.743c-.09 1.01-.256 2.108-.398 3.305-.15 1.197-.314 2.488-.49 3.873-.064.697-.224 1.4-.376 2.13l-.467 2.255c-1.165 6.217-3.49 13.732-7.266 22.106l-1.45 3.2c-.508 1.078-1.118 2.128-1.688 3.224-.583 1.09-1.176 2.197-1.777 3.324-.574 1.145-1.327 2.206-1.996 3.343-.687 1.13-1.385 2.273-2.093 3.436-.686 1.18-1.534 2.272-2.312 3.44l-2.43 3.512c-.833 1.18-1.762 2.31-2.658 3.492-7.262 9.38-16.212 19.115-26.97 28.604-10.748 9.49-23.096 18.974-37.003 28.01-13.867 9.102-29.266 17.78-45.907 26.063-8.322 4.145-17.047 7.993-26.07 11.686-4.5 1.87-9.08 3.695-13.71 5.53l-.87.345c5.138 1.442-7.488-.765-6.337-5.234.243-.91.325-.96.438-1.257.388-.848.686-1.38 1.01-1.985.637-1.162 1.27-2.26 1.908-3.362l3.873-6.547c5.208-8.705 10.575-17.518 15.878-26.552 2.628-4.505 5.316-9.106 7.665-13.662.287-.565.563-1.126.815-1.666.245-.523.486-1.09.587-1.393.02-.062.036-.12.016-.04.05.195-.225-.046.09 1.687.892 4.076 7.482 2.978 5.47 2.937l-.31.117c1.11 1.724-4.852-16.053-2.684-8.48l.36-.093.912-.256c2.528-.73 5.137-1.526 7.732-2.315 2.604-.8 5.218-1.6 7.844-2.406l3.962-1.22c1.236 3.82-2.064-8.766 3.034 8.488l-.526.17-1.1.327-1.996.58-16.103 4.675c-5.353 1.67-10.98 2.93-16.594 4.3-5.62 1.34-11.27 2.78-16.98 4.057-45.66 9.75-94.627 15.632-145.407 17.73-6.344.423-12.728.37-19.13.52l-19.283.322c-6.438-.053-12.9-.105-19.382-.156-6.51-.194-13.05-.34-19.594-.583-26.143-1.064-52.587-3.287-79.07-7.1-3.31-.465-6.61-1.05-9.92-1.568-3.31-.535-6.626-1.043-9.923-1.7l-9.915-1.862c-3.293-.705-6.59-1.41-9.888-2.118-13.164-2.962-26.314-6.286-39.243-10.54-12.935-4.206-25.717-9.088-38.107-14.98-12.378-5.895-24.383-12.805-35.458-21.175-11.03-8.37-21.285-18.18-29.017-30.052l-1.455-2.216-.726-1.11c-.226-.38-.43-.773-.646-1.16l-2.546-4.67c-.45-.764-.794-1.585-1.15-2.4l-1.073-2.44-1.067-2.444c-.357-.814-.59-1.68-.892-2.518-.56-1.69-1.153-3.373-1.677-5.074l-1.234-5.208c-.48-1.723-.627-3.51-.9-5.27-.227-1.77-.562-3.528-.577-5.313l-.244-5.338c-.02-.183.015-.82.016-.848l.03-.63.057-1.256.116-2.514.057-1.257c.018-.418.03-.83.105-1.298l.367-2.72.377-2.72.194-1.358c.09-.44.2-.868.297-1.302l1.224-5.188c.17-.875.522-1.694.78-2.54l.842-2.522.846-2.52 1.048-2.432c.717-1.612 1.384-3.25 2.15-4.836 1.704-3.072 3.23-6.26 5.244-9.122.975-1.45 1.867-2.964 2.913-4.355l3.177-4.14c1.023-1.414 2.19-2.69 3.343-3.982l3.455-3.872 3.682-3.622c1.23-1.202 2.433-2.437 3.756-3.524C47.646 74.12 58.98 66.54 70.733 60.06c11.766-6.475 23.97-11.858 36.32-16.514 12.362-4.63 24.913-8.387 37.454-11.718l9.42-2.365c3.142-.757 6.298-1.408 9.436-2.114l4.708-1.04c1.57-.333 3.148-.614 4.72-.922l9.413-1.81c50.247-8.867 99.6-11.182 146.11-10.732 46.582.476 90.57 3.787 130.866 9.532 10.072 1.435 19.907 3.046 29.503 4.746 9.604 1.655 18.943 3.56 27.952 5.836 9.016 2.244 17.752 4.625 26.183 7.155 8.42 2.568 16.535 5.273 24.32 8.112 31.086 11.445 56.89 25.224 75.395 40.147 4.62 3.727 8.768 7.53 12.424 11.338 3.675 3.79 6.852 7.597 9.543 11.327 2.677 3.74 4.846 7.41 6.61 10.88 1.753 3.48 3.03 6.786 4.02 9.79 1.912 6.04 2.575 10.888 2.79 14.142l.105 1.146.028 1c.02.618.033 1.135.045 1.55l.04 1.25zm0 0l-.04-1.25-.053-1.55c-.01-.31-.02-.643-.033-1-.032-.358-.068-.74-.107-1.147l-.267-2.73c-.16-1-.333-2.097-.522-3.287-.22-1.185-.533-2.448-.827-3.81-.37-1.344-.774-2.778-1.263-4.28-1.025-2.986-2.343-6.266-4.135-9.71-1.825-3.424-4.07-7.025-6.808-10.687-2.762-3.646-6.047-7.313-9.796-10.965-3.77-3.63-8.035-7.215-12.754-10.71-4.707-3.51-9.908-6.877-15.532-10.103-5.62-3.23-11.646-6.358-18.07-9.305-12.845-5.91-27.197-11.26-42.817-16.01-7.805-2.39-15.93-4.634-24.347-6.728-8.406-2.13-17.106-4.124-26.08-5.96-8.98-1.802-18.183-3.682-27.63-5.512-9.456-1.792-19.188-3.342-29.148-4.77-39.847-5.683-83.494-8.97-129.663-9.44-23.122-.2-46.815.22-70.982 1.853-24.152 1.625-48.753 4.353-73.465 8.737l-9.257 1.78c-1.543.302-3.096.58-4.638.905l-4.622 1.02c-3.08.695-6.183 1.334-9.263 2.076l-9.234 2.32c-12.283 3.263-24.552 6.935-36.577 11.44-12.01 4.53-23.826 9.747-35.124 15.966-11.285 6.218-22.067 13.45-31.66 22.008-1.247 1.02-2.36 2.172-3.506 3.293l-3.433 3.37-3.19 3.583c-1.065 1.192-2.15 2.372-3.08 3.666L27.3 107.65c-.96 1.272-1.757 2.647-2.646 3.965-1.847 2.604-3.192 5.476-4.746 8.24-.686 1.423-1.274 2.89-1.92 4.332l-.944 2.173-.746 2.244-.75 2.243c-.23.753-.554 1.48-.696 2.257l-1.083 4.6c-.09.382-.19.767-.268 1.147l-.155 1.132-.318 2.264-.33 2.263c-.072.36-.084.788-.102 1.208l-.058 1.258-.21 4.812.22 4.728c0 1.583.315 3.136.515 4.7.244 1.558.355 3.14.792 4.664l1.088 4.612c.47 1.51 1.003 3.003 1.497 4.507.268.746.466 1.516.788 2.24l.96 2.183.957 2.183c.316.73.62 1.464 1.03 2.15l2.292 4.203c.192.348.373.703.577 1.047l.662 1.004 1.32 2.01c7 10.772 16.517 19.93 26.938 27.83 10.458 7.907 21.952 14.54 33.898 20.228 11.957 5.686 24.38 10.436 37 14.54 12.61 4.15 25.5 7.408 38.422 10.316l9.712 2.08 9.753 1.833c3.24.646 6.51 1.146 9.768 1.673 3.263.512 6.51 1.087 9.775 1.544 26.104 3.76 52.244 5.96 78.123 7.014 6.463.24 12.9.383 19.32.576l19.29.155 19.108-.322c6.344-.147 12.67-.094 18.954-.512 50.31-2.08 98.787-7.913 143.85-17.533 5.604-1.255 11.114-2.662 16.616-3.97 5.494-1.34 10.952-2.55 16.36-4.234l16.102-4.676 1.995-.58.498-.144.39-.12.46-.147c5.456 17.13 1.328 4.804 2.387 8.676l-3.94 1.21c-2.632.81-5.255 1.613-7.866 2.414-2.622.798-5.208 1.588-7.875 2.36l-1.04.29-.62.16c1.74 7.728-4.507-10.123-2.845-8.59l.635-.246c-1.74-.174 5.34-1.387 6.31 3.103.39 2.065.04 2.166.022 2.688-.093.41-.18.672-.264.93-.334.972-.643 1.637-.96 2.332-.316.677-.634 1.32-.954 1.95-2.568 4.974-5.252 9.547-7.925 14.135-5.355 9.124-10.735 17.957-15.918 26.618-1.277 2.16-2.55 4.31-3.814 6.45-.617 1.062-1.23 2.128-1.788 3.15-.268.488-.562 1.05-.688 1.334-.01-.014-.056.223.11-.388.977-3.98-11.075-6.523-5.732-5.154l.858-.342c4.574-1.818 9.08-3.662 13.5-5.555 8.84-3.8 17.403-7.648 25.758-11.388 8.362-3.727 16.405-7.584 24.12-11.528 3.88-1.938 7.645-3.95 11.367-5.914 3.682-2.034 7.333-4 10.843-6.075 14.164-8.1 26.86-16.646 37.988-25.355 1.42-1.055 2.726-2.215 4.073-3.302 1.33-1.107 2.67-2.18 3.942-3.295l3.745-3.353c.617-.553 1.23-1.103 1.843-1.65.602-.556 1.175-1.134 1.76-1.694 2.32-2.26 4.628-4.437 6.7-6.727l3.124-3.35c.973-1.15 1.934-2.286 2.88-3.407.937-1.13 1.905-2.212 2.78-3.342.86-1.14 1.71-2.263 2.548-3.37.82-1.123 1.71-2.173 2.436-3.31.75-1.122 1.49-2.228 2.22-3.315.702-1.104 1.48-2.14 2.086-3.255l1.865-3.245c.6-1.07 1.24-2.098 1.777-3.153.52-1.066 1.028-2.113 1.528-3.142l1.466-3.03c.465-1 .822-2.02 1.226-2.997.392-.983.774-1.946 1.148-2.89.38-.94.756-1.86 1.015-2.797.57-1.855 1.112-3.627 1.63-5.31.286-.837.447-1.68.63-2.496l.526-2.382.497-2.247s.336-1.426.4-2.12c.18-1.384.35-2.673.506-3.868.146-1.196.317-2.294.412-3.3l.123-2.744.222-4.95z"/><g fill="#24AE94"><path d="M103.69 124.616c-.052.718-.267 1.523-.646 2.415-.38.894-.792 1.74-1.24 2.547-.447.806-.723 1.274-.826 1.404-.654.96-1.342 1.86-2.065 2.71-.723.85-1.498 1.644-2.323 2.383-.482.436-1.025.87-1.627 1.306-.602.435-1.23.65-1.884.65H75.213c-.69.22-1.464.37-2.324.46h-1.032c-.276 0-.55-.023-.826-.066-.276-.045-.526-.13-.75-.262-.223-.13-.386-.348-.49-.652-.103-.262-.086-.588.052-.98.172-1.566.318-3.133.44-4.7.12-1.566.266-3.11.438-4.635.413-4.612.826-9.204 1.238-13.774.414-4.57.827-9.16 1.24-13.775.378-.87.895-1.565 1.55-2.09.206-.172.42-.347.645-.52.223-.175.456-.37.697-.59.86-.607 1.755-1.152 2.685-1.632.93-.478 1.876-.892 2.84-1.24.757-.26 1.53-.478 2.324-.652.793-.173 1.584-.195 2.376-.063.62 0 1.084.304 1.394.912v.914c-.173 1.567-.328 3.134-.464 4.7-.138 1.567-.276 3.157-.413 4.767-.276 3.265-.568 6.496-.878 9.694-.31 3.2-.603 6.432-.878 9.695h17.71c.652-.002.955.358.903 1.076zM139.447 124.06c.103.35.094.774-.026 1.274s-.31 1.067-.567 1.697c-.258.633-.525 1.22-.8 1.763-.276.546-.534 1.013-.774 1.405-.243.392-.397.63-.466.717-1.31 2.004-2.77 3.722-4.39 5.158-.482.436-1.032.87-1.65 1.306-.62.435-1.24.65-1.86.65h-18.02c-.896.263-1.756.394-2.582.394-.723.13-1.464.02-2.22-.326-.483-.305-.62-.806-.413-1.502.136-2.046.273-4.068.412-6.072.137-2 .292-4.024.464-6.07.103-1.22.207-2.426.31-3.623.104-1.197.207-2.426.31-3.688-.035-.217-.018-.457.052-.718.172-1.698.344-3.385.516-5.06s.378-3.34.62-4.995c.137-.957.284-1.926.438-2.906.155-.98.37-1.926.646-2.84.378-1.13.947-2.045 1.704-2.74.757-.697 1.53-1.373 2.324-2.024 1.55-1.263 3.193-2.34 4.93-3.23s3.538-1.406 5.397-1.536h1.162c.5 0 .903.152 1.213.456h13.735c.653 0 .955.36.903 1.08-.052.716-.267 1.522-.645 2.413-.378.893-.79 1.742-1.238 2.548-.448.806-.723 1.273-.826 1.403-.654.958-1.342 1.86-2.066 2.71-.723.85-1.497 1.643-2.323 2.382-.483.48-1.025.926-1.627 1.34-.603.413-1.23.62-1.884.62h-7.9c-.07.304-.113.783-.13 1.436-.017.653-.042 1.134-.077 1.438h12.856c.653 0 .946.294.877.88-.07.59-.284 1.265-.646 2.025-.36.762-.767 1.48-1.214 2.154-.447.675-.722 1.076-.826 1.207-.654.96-1.35 1.862-2.09 2.71-.74.85-1.507 1.643-2.298 2.383-.484.48-1.034.664-1.654.556-.62-.108-1.24-.164-1.858-.164h-4.44c0 .13-.01.325-.026.587-.018.26-.035.544-.052.85-.018.305-.026.587-.026.848v.587h17.917c.447-.004.723.17.827.52zM184.42 94.912c-.07.718-.284 1.523-.646 2.414-.362.893-.775 1.73-1.24 2.514-.463.784-.748 1.24-.85 1.372-1.276 2.002-2.738 3.72-4.39 5.156-.483.436-1.025.87-1.626 1.306-.603.438-1.214.653-1.833.653h-5.473c-.38 3.874-.732 7.726-1.06 11.556-.326 3.83-.68 7.682-1.058 11.556.07.39 0 .77-.207 1.14-.206.37-.448.71-.722 1.014-.104.13-.207.26-.31.392-.104.13-.225.24-.362.326-.552.52-1.136.99-1.756 1.404-.62.414-1.257.794-1.91 1.142-.964.522-1.988 1.003-3.072 1.437-1.085.435-2.144.675-3.176.718h-.414c-.173 0-.388.012-.646.032s-.525.01-.8-.032c-.276-.043-.525-.142-.75-.294-.223-.153-.386-.382-.49-.687-.103-.217-.086-.52.052-.913.104-.957.198-1.914.284-2.873.085-.956.163-1.915.232-2.872.38-3.873.73-7.715 1.06-11.523.326-3.808.678-7.648 1.058-11.522h-12.444c-.688 0-.99-.36-.904-1.077.087-.72.31-1.523.672-2.415.36-.893.766-1.74 1.213-2.547.447-.803.723-1.27.826-1.402.652-.957 1.35-1.86 2.09-2.71s1.505-1.642 2.298-2.382c.48-.436 1.033-.87 1.652-1.307.62-.435 1.24-.654 1.86-.654h31.91c.688-.003.998.357.93 1.076zM187.88 101.02l2.17-14.598h3.276l-3.1 14.6h-2.345zM236.454 123.538c.068.48.104.946.104 1.404 0 .457-.087.925-.258 1.403-.517 1.655-1.214 3.124-2.09 4.407-.88 1.284-1.817 2.49-2.815 3.624-1.067 1.262-2.23 2.25-3.485 2.97-1.257.718-2.556 1.25-3.9 1.6-1.34.35-2.71.532-4.104.554-1.394.022-2.78-.055-4.156-.23-1.206-.173-2.427-.4-3.667-.684-1.24-.284-2.445-.728-3.614-1.34-.965-.478-1.92-1.02-2.867-1.63-.947-.61-1.713-1.46-2.298-2.548-.24-.478-.284-.978-.13-1.502.156-.52.318-.978.49-1.37.38-.827.802-1.61 1.266-2.35.466-.74.956-1.436 1.473-2.09.55-.695 1.11-1.34 1.678-1.926.57-.587 1.197-1.12 1.886-1.6l.413-.262c.206-.13.42-.238.645-.326.223-.086.446-.13.67-.13s.388.088.49.26c.482.96 1.11 1.732 1.885 2.318.774.59 1.557 1.078 2.35 1.47 1.135.566 2.305 1.013 3.51 1.34 1.206.325 2.428.574 3.667.75-.24-.22-.483-.447-.723-.686-.24-.24-.482-.468-.723-.687-.998-.87-2.048-1.643-3.15-2.316-1.1-.674-2.22-1.294-3.355-1.86-.826-.393-1.662-.762-2.504-1.11-.843-.348-1.678-.762-2.503-1.24-1-.565-1.962-1.164-2.892-1.795-.93-.63-1.842-1.34-2.736-2.122-.827-.74-1.628-1.588-2.402-2.547-.774-.956-1.403-2.022-1.884-3.198-.172-.48-.344-1.012-.517-1.6-.172-.586-.258-1.164-.258-1.73 0-.608.077-1.207.23-1.795.156-.587.355-1.143.595-1.665.55-1.217 1.212-2.415 1.988-3.59.774-1.176 1.627-2.253 2.556-3.23.93-.98 1.91-1.83 2.942-2.548 1.033-.72 2.117-1.25 3.253-1.6 1.273-.434 2.563-.728 3.873-.88 1.308-.153 2.615-.208 3.924-.164 1.308.087 2.615.23 3.924.423 1.308.196 2.582.534 3.82 1.012 1.067.393 2.126.872 3.176 1.437 1.05.565 1.97 1.37 2.763 2.415.24.35.275.838.104 1.47-.174.63-.33 1.1-.466 1.402-.38.828-.8 1.61-1.265 2.35-.466.742-.957 1.438-1.473 2.09-.55.653-1.11 1.284-1.678 1.895-.57.608-1.198 1.13-1.885 1.565-.242.175-.604.382-1.085.62-.482.24-.86.186-1.136-.163-.482-.61-1.016-1.13-1.6-1.566-.587-.435-1.206-.826-1.86-1.175-1.308-.61-2.667-1.087-4.08-1.437-1.41-.348-2.84-.566-4.284-.654.653.74 1.342 1.417 2.065 2.025.998.872 2.047 1.643 3.15 2.316 1.1.677 2.22 1.297 3.355 1.86.93.48 1.85.915 2.763 1.307.91.392 1.814.85 2.71 1.37 1.102.61 2.187 1.296 3.253 2.058 1.067.762 2.066 1.622 2.996 2.58.895.956 1.695 2.013 2.4 3.164.706 1.156 1.196 2.45 1.472 3.886zM289.636 97.882c-.482.956-1.024 1.806-1.626 2.546-.603.74-1.265 1.48-1.988 2.22-1.31 1.35-2.694 2.568-4.156 3.655-1.463 1.09-2.97 2.11-4.52 3.07 1.48.087 2.91.217 4.287.39.964.175 1.963.382 2.995.62 1.032.24 1.98.664 2.84 1.274.688.48 1.18 1.142 1.472 1.99.292.85.197 1.73-.284 2.645-.93 1.785-2.048 3.32-3.356 4.603-1.31 1.283-2.686 2.492-4.13 3.624-1.446 1.13-2.9 2.186-4.364 3.164-1.463.98-2.97 1.927-4.518 2.84-1.755 1.088-3.52 2.113-5.292 3.07-1.773.956-3.572 1.87-5.396 2.74l-1.24.588c-.068 0-.12.022-.153.065h-.052c-.483.22-.956.414-1.42.588-.465.173-.94.326-1.42.456-.964.22-1.825.328-2.582.328h-.542c-.188 0-.386-.044-.593-.13h-.155c0-.045-.017-.066-.05-.066h-.053c-.38-.13-.62-.39-.724-.783-.103-.35-.085-.674.052-.98.207-3.568.465-7.246.774-11.033.276-3.045.542-6.08.8-9.106.26-3.024.594-6.038 1.007-9.04l.413-3.136c.137-1.044.344-2.066.62-3.067.343-1.262.912-2.274 1.704-3.035.79-.762 1.6-1.49 2.426-2.188 1.583-1.307 3.27-2.393 5.06-3.265 1.79-.87 3.63-1.395 5.525-1.567.24 0 .482-.01.723-.034.242-.022.5-.032.775-.032 2.238-.13 4.492-.13 6.764 0 1.032.043 2.072.11 3.123.195 1.05.088 2.074.283 3.073.588.516.176 1.033.35 1.55.523.516.174 1.014.435 1.497.782.31.22.628.5.955.85.327.35.524.74.594 1.175.104.48.112.97.026 1.47-.09.5-.235.966-.442 1.402zm-15.697 23.633c.067-.087.128-.174.18-.26.05-.088.11-.175.18-.263.034-.086.06-.162.078-.23.017-.065.042-.14.077-.228-.07-.26-.138-.456-.207-.586-.447-.435-.98-.762-1.6-.98-.69-.217-1.404-.38-2.144-.488-.74-.108-1.472-.207-2.194-.295h-.207c-.138 1.394-.258 2.798-.36 4.212-.105 1.414-.208 2.84-.31 4.276.136-.088.274-.174.412-.26l.414-.264c.136-.086.257-.152.36-.196.585-.392 1.144-.783 1.678-1.175.533-.393 1.092-.828 1.678-1.308.07-.04.207-.15.413-.326.17-.217.36-.4.567-.556.206-.15.395-.336.567-.555l.415-.52zm-.155-21.218c-.62-.174-1.24-.305-1.86-.392-.62-.086-1.238-.174-1.858-.262l-.464 3.526c-.104.74-.2 1.467-.284 2.186-.087.718-.165 1.447-.233 2.188l1.704-.98c.173-.13.37-.27.595-.425.224-.152.404-.27.542-.358.24-.175.473-.338.697-.49.224-.153.44-.338.646-.556.104-.043.224-.15.362-.327.172-.13.327-.272.465-.425.137-.15.292-.294.464-.424.07-.086.13-.173.182-.26.052-.087.11-.174.18-.262.208-.26.345-.458.415-.587.068-.087.137-.262.206-.522-.034-.172-.12-.392-.258-.652-.207-.217-.44-.4-.697-.555-.26-.152-.528-.292-.803-.423zm-.052 21.545c.137-.132.26-.25.362-.36.103-.106-.035.013-.414.36h.053zM336.313 134.506c.104.263.104.545 0 .85-.104.305-.25.598-.44.88s-.395.534-.618.752c-.225.22-.388.37-.49.458-.76.695-1.55 1.293-2.376 1.795-.827.5-1.67.97-2.53 1.404-.896.392-1.79.73-2.686 1.01-.896.284-1.808.468-2.736.556-.413 0-.896-.02-1.445-.063-.552-.045-.965-.35-1.24-.914-.412-1.003-.826-1.98-1.238-2.938-.414-.957-.845-1.915-1.29-2.872l-9.296-21.544c-.345.173-.68.348-1.007.52-.328.175-.68.35-1.06.523-.482 5.7-.895 11.38-1.238 17.037-.38.872-.896 1.568-1.55 2.09-.24.22-.465.415-.67.588-.207.176-.432.35-.673.523-.86.653-1.755 1.208-2.685 1.665s-1.876.86-2.84 1.207c-.757.262-1.54.48-2.35.653-.81.175-1.61.196-2.4.065-.654 0-1.12-.305-1.394-.914.034-.13.05-.27.05-.425v-.423c.138-1.87.268-3.72.388-5.55.122-1.827.268-3.677.44-5.55.24-3.045.5-6.093.774-9.14.275-3.046.602-6.07.98-9.074.172-1.044.327-2.09.465-3.133s.343-2.066.62-3.07c.343-1.26.903-2.26 1.677-3 .774-.74 1.593-1.482 2.452-2.22 1.582-1.308 3.26-2.395 5.034-3.267 1.772-.87 3.605-1.37 5.5-1.502.274-.04.532-.062.773-.062.24 0 .482-.02.723-.065 2.272-.043 4.544-.043 6.816 0 1.032.088 2.065.173 3.098.26 1.033.09 2.048.285 3.047.59.517.13 1.04.282 1.575.455.533.175 1.04.436 1.523.783.31.22.62.503.93.85.31.35.517.763.62 1.242.103.48.11.968.025 1.468-.087.5-.232.946-.44 1.34-.998 1.783-2.202 3.394-3.613 4.83-.31.35-.628.664-.955.947-.328.282-.663.576-1.007.88.378.873.74 1.71 1.084 2.515s.706 1.644 1.085 2.513c1.79 4.092 3.562 8.173 5.317 12.24 1.758 4.07 3.514 8.15 5.27 12.24zm-27.21-30.88c-.105.742-.2 1.48-.284 2.22-.088.74-.165 1.48-.234 2.222.275-.175.56-.35.853-.523.29-.173.575-.35.85-.522.173-.13.37-.27.595-.425.224-.15.404-.27.543-.358.24-.174.465-.337.67-.49.208-.15.43-.314.672-.49.104-.13.225-.237.36-.325.173-.173.328-.327.466-.458.138-.13.293-.282.465-.457l.362-.456c.068-.087.138-.185.207-.294.067-.108.136-.207.206-.295l.154-.586c0-.176-.07-.393-.207-.654-.413-.392-.93-.695-1.55-.914-.584-.217-1.187-.37-1.806-.456-.62-.087-1.24-.152-1.86-.196-.208 1.086-.362 2.24-.465 3.457zM371.734 124.06c.102.35.093.774-.026 1.274-.12.5-.31 1.067-.57 1.697-.257.633-.522 1.22-.798 1.763-.276.546-.534 1.013-.774 1.405-.242.392-.397.63-.465.717-1.31 2.004-2.77 3.722-4.388 5.158-.483.436-1.033.87-1.653 1.306-.62.435-1.24.65-1.86.65h-18.02c-.896.263-1.756.394-2.582.394-.723.13-1.463.02-2.22-.326-.482-.305-.62-.806-.413-1.502.137-2.046.275-4.068.413-6.072.137-2 .292-4.024.465-6.07.103-1.22.206-2.426.31-3.623.104-1.197.207-2.426.31-3.688-.034-.217-.018-.457.052-.718.172-1.698.344-3.385.517-5.06.172-1.675.378-3.34.62-4.995.137-.957.284-1.926.437-2.906.154-.98.37-1.926.645-2.84.378-1.13.946-2.045 1.703-2.74s1.532-1.373 2.324-2.024c1.55-1.263 3.192-2.34 4.93-3.23 1.738-.894 3.538-1.406 5.397-1.536h1.16c.5 0 .905.152 1.214.456H372.2c.652 0 .953.36.903 1.08-.054.716-.267 1.522-.646 2.413-.38.893-.793 1.742-1.238 2.548-.45.806-.725 1.273-.828 1.403-.653.958-1.342 1.86-2.065 2.71-.72.85-1.496 1.643-2.323 2.382-.48.48-1.023.926-1.627 1.34-.603.413-1.23.62-1.884.62h-7.9c-.068.304-.112.783-.128 1.436-.02.653-.044 1.134-.078 1.438h12.857c.652 0 .945.294.877.88-.068.59-.282 1.265-.645 2.025-.36.762-.767 1.48-1.214 2.154-.445.675-.72 1.076-.823 1.207-.655.96-1.353 1.862-2.093 2.71-.74.85-1.506 1.643-2.298 2.383-.483.48-1.032.664-1.652.556s-1.238-.164-1.857-.164h-4.44c0 .13-.01.325-.026.587-.017.26-.034.544-.052.85-.017.305-.025.587-.025.848v.587h17.917c.445-.004.72.17.824.52zM411.13 131.11c.07.307.05.6-.053.883-.103.283-.24.556-.41.815-.175.26-.372.502-.596.72-.224.218-.403.39-.54.52-.724.697-1.506 1.297-2.35 1.796-.845.5-1.696.946-2.557 1.338-.86.436-1.748.784-2.66 1.045-.91.262-1.815.435-2.71.522-.172 0-.388.01-.646.032-.257.02-.534 0-.826-.066-.292-.064-.55-.163-.773-.293-.224-.13-.37-.35-.438-.652-.346-1.393-.672-2.808-.982-4.243s-.637-2.872-.98-4.31c-.24-1.087-.484-2.164-.723-3.23-.242-1.066-.482-2.144-.724-3.233h-6.557c-.38 1.525-.74 3.06-1.084 4.604-.346 1.546-.69 3.08-1.034 4.602-.172.697-.586 1.317-1.24 1.862-.652.544-1.203.99-1.65 1.34-.862.608-1.756 1.152-2.686 1.63-.93.48-1.877.893-2.84 1.24-.206.088-.68.23-1.42.425-.74.196-1.48.315-2.22.36s-1.377-.057-1.91-.295c-.533-.24-.715-.773-.543-1.6 1.205-5.222 2.42-10.412 3.64-15.57 1.222-5.157 2.59-10.282 4.105-15.375.207-.652.405-1.305.594-1.96.19-.65.405-1.28.645-1.892.552-1.48 1.345-2.742 2.376-3.786.965-1.002 1.98-1.916 3.047-2.742 1.066-.827 2.17-1.59 3.306-2.285 1.134-.696 2.33-1.316 3.588-1.86 1.255-.545 2.504-.926 3.742-1.144.86-.176 1.748-.295 2.66-.358.91-.066 1.763.14 2.555.62.792.435 1.352 1.163 1.68 2.186.325 1.023.627 2.014.903 2.97.342 1.22.66 2.428.954 3.624l.904 3.688c1.137 4.658 2.238 9.315 3.305 13.97 1.068 4.658 2.118 9.36 3.15 14.1zm-18.692-14.36c-.275-1.09-.533-2.177-.773-3.265s-.5-2.197-.775-3.33c-.172-.608-.318-1.218-.438-1.828-.12-.608-.268-1.218-.44-1.828-.275 1.132-.56 2.24-.85 3.328-.294 1.09-.58 2.178-.855 3.266l-.93 3.72c.173-.042.32-.064.44-.064H392.437zM457.807 139.598c.104.262.095.545-.024.85-.12.305-.277.598-.465.88-.19.284-.396.534-.62.753-.225.218-.387.37-.49.458-.724.695-1.508 1.305-2.35 1.828-.844.52-1.695.98-2.556 1.37-.86.393-1.748.728-2.66 1.013-.913.28-1.815.466-2.71.554-.414 0-.904-.023-1.473-.065-.568-.045-.99-.35-1.267-.915-.41-1-.824-1.98-1.237-2.938l-1.24-2.872c-1.756-4.09-3.503-8.128-5.24-12.11-1.74-3.983-3.485-7.997-5.24-12.045h-.053c-.24 2.61-.474 5.223-.697 7.835-.224 2.61-.474 5.222-.748 7.833-.38.87-.878 1.567-1.498 2.09-.483.435-.973.826-1.472 1.174-.5.35-1.006.697-1.522 1.045-1.103.61-2.298 1.187-3.588 1.73s-2.54.816-3.745.816h-.644c-.26 0-.526-.02-.803-.065s-.525-.13-.75-.262c-.223-.13-.386-.35-.49-.652-.102-.262-.086-.588.053-.98.173-1.566.318-3.133.438-4.7.12-1.565.25-3.11.388-4.635.447-4.613.877-9.206 1.29-13.775.414-4.57.827-9.16 1.24-13.776.38-.87.878-1.566 1.497-2.09.447-.304.896-.674 1.343-1.11 1.823-1.26 3.684-2.22 5.576-2.87.724-.262 1.488-.48 2.297-.653.81-.175 1.608-.196 2.4-.065.62 0 1.085.305 1.395.913 0 .175-.01.326-.025.457-.02.13-.026.283-.026.457-.137 1.567-.275 3.133-.414 4.7-.136 1.566-.274 3.156-.41 4.766-.07.436-.105.762-.105.98 1.307-1.74 2.6-3.472 3.872-5.19s2.547-3.45 3.82-5.19c.207-.262.474-.457.802-.588.325-.13.67-.23 1.03-.293.362-.065.716-.1 1.06-.1h.878c.998 0 1.995.09 2.994.263.998.174 1.98.436 2.943.782l1.42.522c.705.262 1.386.61 2.04 1.045.654.436 1.162.926 1.522 1.47.36.544.318 1.12-.13 1.73-1.34 1.827-2.692 3.634-4.053 5.42-1.36 1.783-2.71 3.588-4.052 5.417.31.74.627 1.458.955 2.153.326.696.645 1.415.955 2.154 1.755 4.094 3.51 8.174 5.266 12.242 1.757 4.066 3.53 8.146 5.32 12.236zM515.43 94.912c-.07.718-.283 1.523-.646 2.414-.36.893-.773 1.73-1.237 2.514-.466.784-.75 1.24-.852 1.372-1.275 2.002-2.738 3.72-4.39 5.156-.482.436-1.026.87-1.626 1.306-.605.438-1.215.653-1.834.653h-5.474c-.38 3.874-.732 7.726-1.06 11.556-.326 3.83-.68 7.682-1.06 11.556.07.39 0 .77-.204 1.14-.207.37-.448.71-.724 1.014-.104.13-.207.26-.31.392-.104.13-.225.24-.362.326-.55.52-1.136.99-1.755 1.404-.618.414-1.256.794-1.91 1.142-.964.522-1.988 1.003-3.072 1.437-1.085.435-2.144.675-3.176.718h-.414c-.172 0-.387.012-.645.032s-.524.01-.8-.032c-.276-.043-.525-.142-.75-.294-.224-.153-.387-.382-.49-.687-.103-.217-.087-.52.053-.913.104-.957.197-1.914.284-2.873.084-.956.16-1.915.232-2.872.376-3.873.73-7.715 1.057-11.523.327-3.808.68-7.648 1.06-11.522H472.88c-.688 0-.988-.36-.903-1.077.086-.72.31-1.523.67-2.415.362-.893.768-1.74 1.214-2.547.446-.803.722-1.27.825-1.402.653-.957 1.35-1.86 2.092-2.71.74-.85 1.506-1.642 2.298-2.382.48-.436 1.032-.87 1.652-1.307.62-.435 1.237-.654 1.857-.654h31.91c.688-.003 1 .357.93 1.076zM559.732 93.376c.618 0 1.083.307 1.394.915-.035.22-.052.522-.052.914-.172 1.567-.318 3.135-.44 4.7s-.267 3.156-.438 4.768c-.413 4.613-.825 9.194-1.237 13.74-.415 4.55-.83 9.13-1.242 13.744-.38.872-.877 1.567-1.496 2.09-.482.435-.973.838-1.472 1.207-.5.37-1.025.708-1.575 1.012-1.103.61-2.29 1.186-3.562 1.73-1.274.543-2.514.815-3.717.815h-.672c-.275 0-.552-.022-.827-.063-.275-.045-.525-.132-.748-.263-.226-.13-.37-.35-.44-.653-.103-.26-.086-.585.053-.977.137-1.568.274-3.135.413-4.702.137-1.565.274-3.11.412-4.634.138-1.523.275-3.035.413-4.537.14-1.502.276-3.015.414-4.538-.517.13-1.033.195-1.55.195h-13.682l-1.238 13.318c-.38.872-.88 1.567-1.498 2.09-.998.914-1.996 1.654-2.995 2.22-1.1.608-2.297 1.185-3.587 1.73-1.29.542-2.54.814-3.744.814h-.646c-.26 0-.525-.023-.8-.064-.276-.045-.524-.132-.75-.263-.223-.13-.388-.35-.49-.653-.104-.26-.085-.586.05-.978.175-1.568.32-3.135.44-4.702.12-1.566.25-3.11.388-4.635.446-4.612.878-9.205 1.29-13.775.414-4.57.827-9.16 1.24-13.774.378-.87.877-1.567 1.497-2.09.446-.303.894-.675 1.342-1.11.895-.608 1.8-1.152 2.71-1.632.912-.478 1.867-.89 2.866-1.24.724-.262 1.49-.478 2.298-.653.81-.172 1.608-.193 2.4-.064.62 0 1.086.307 1.394.915 0 .175-.008.327-.024.458-.018.13-.025.283-.025.456l-.412 4.7c-.14 1.567-.277 3.156-.413 4.768-.104.913-.2 1.827-.284 2.74-.086.915-.164 1.83-.23 2.743h15.232c.172-1.653.326-3.318.464-4.994l.413-4.993c.206-.436.43-.827.67-1.176.24-.347.534-.65.878-.912.24-.174.465-.348.67-.523.21-.173.432-.37.673-.587.86-.61 1.757-1.153 2.687-1.633.93-.478 1.875-.89 2.84-1.24.757-.262 1.54-.478 2.35-.653.802-.173 1.6-.195 2.395-.066zM598.2 124.06c.103.35.095.774-.027 1.274-.12.5-.31 1.067-.566 1.697-.26.633-.525 1.22-.802 1.763-.275.546-.534 1.013-.774 1.405-.24.392-.395.63-.464.717-1.31 2.004-2.77 3.722-4.388 5.158-.482.436-1.033.87-1.652 1.306-.62.435-1.24.65-1.86.65h-18.02c-.896.263-1.754.394-2.582.394-.72.13-1.463.02-2.22-.326-.482-.305-.62-.806-.413-1.502.14-2.046.276-4.068.414-6.072.138-2 .293-4.024.466-6.07.103-1.22.205-2.426.31-3.623.103-1.197.207-2.426.31-3.688-.034-.217-.02-.457.052-.718.172-1.698.343-3.385.517-5.06.17-1.675.377-3.34.618-4.995.138-.957.284-1.926.44-2.906.154-.98.368-1.926.644-2.84.38-1.13.947-2.045 1.704-2.74s1.53-1.373 2.323-2.024c1.548-1.263 3.192-2.34 4.93-3.23 1.738-.894 3.538-1.406 5.397-1.536h1.16s.905.152 1.213.456h13.736c.653 0 .955.36.903 1.08-.053.716-.268 1.522-.647 2.413-.38.893-.792 1.742-1.24 2.548-.447.806-.723 1.273-.825 1.403-.654.958-1.343 1.86-2.065 2.71-.723.85-1.497 1.643-2.323 2.382-.482.48-1.025.926-1.627 1.34-.603.413-1.23.62-1.884.62h-7.9c-.07.304-.113.783-.13 1.436-.02.653-.044 1.134-.078 1.438h12.857c.652 0 .944.294.876.88-.068.59-.284 1.265-.645 2.025-.36.762-.767 1.48-1.213 2.154-.446.675-.724 1.076-.827 1.207-.652.96-1.35 1.862-2.09 2.71-.74.85-1.507 1.643-2.3 2.383-.48.48-1.03.664-1.65.556-.618-.108-1.238-.164-1.86-.164h-4.438c0 .13-.01.325-.027.587-.017.26-.033.544-.05.85-.018.305-.026.587-.026.848v.587h17.916c.444-.004.72.17.823.52zM151.857 164.4c.24-.087.723-.228 1.446-.424.723-.196 1.446-.326 2.17-.393.72-.064 1.35.023 1.883.262.533.24.73.773.594 1.6-.276 1.655-.552 3.33-.826 5.027-.276 1.696-.55 3.373-.826 5.026-.723 4.527-1.445 9.02-2.17 13.482-.72 4.46-1.462 8.955-2.22 13.48-.378.87-.876 1.566-1.497 2.09-.24.217-.472.4-.695.555-.225.15-.44.336-.646.555-1.826 1.262-3.685 2.22-5.578 2.872-.723.26-1.49.48-2.298.652-.81.175-1.61.197-2.4.066-.62 0-1.085-.305-1.395-.914-.07-.086-.113-.186-.13-.294-.018-.11-.06-.206-.13-.294-.757-1.653-1.515-3.285-2.27-4.896-.758-1.61-1.517-3.22-2.272-4.832-.31.742-.63 1.482-.956 2.222-.328.74-.664 1.48-1.007 2.22-.31.738-.723 1.36-1.24 1.86-.516.5-1.05.946-1.6 1.338-1.825 1.262-3.684 2.22-5.576 2.872-.724.26-1.49.48-2.3.652-.808.175-1.608.197-2.4.066-.62 0-1.084-.305-1.394-.914-.345-1.74-.69-3.47-1.033-5.19-.345-1.72-.69-3.45-1.033-5.19-.896-4.48-1.774-8.922-2.634-13.317-.86-4.397-1.72-8.836-2.582-13.32-.068-.304-.05-.598.052-.88.103-.284.24-.557.413-.817.17-.26.352-.5.54-.717.19-.22.37-.392.543-.523.757-.696 1.55-1.305 2.375-1.828.826-.52 1.67-.98 2.53-1.37.895-.393 1.79-.73 2.685-1.012.895-.283 1.808-.468 2.737-.556h.62c.275 0 .55.022.826.065.275.044.534.13.774.26s.396.35.465.654l2.013 10.38c.275 1.35.542 2.688.8 4.016s.524 2.666.8 4.016c.344-.48.715-.902 1.11-1.273.396-.37.817-.708 1.266-1.012 1.686-1.22 3.528-2.176 5.525-2.873.755-.262 1.54-.478 2.348-.653.81-.173 1.608-.195 2.4-.065.55 0 1.016.306 1.395.915.034.13.12.325.258.586.242.437.43.872.57 1.308.274-1.61.532-3.198.773-4.766.24-1.567.5-3.134.774-4.7.38-.87.895-1.566 1.55-2.09.205-.217.42-.4.645-.556.223-.15.455-.335.697-.554 1.69-1.218 3.53-2.177 5.527-2.874zM194.766 195.28c.103.35.094.772-.026 1.273-.12.5-.31 1.066-.568 1.696-.258.632-.525 1.22-.8 1.764-.276.544-.535 1.01-.775 1.402-.242.392-.396.632-.465.72-1.31 2-2.77 3.72-4.39 5.155-.482.437-1.032.873-1.65 1.31-.62.435-1.24.65-1.86.65h-18.02c-.896.26-1.756.393-2.582.393-.723.13-1.464.02-2.22-.326-.483-.305-.62-.806-.414-1.502.137-2.046.274-4.07.413-6.07.137-2.003.29-4.026.464-6.072.103-1.22.207-2.426.31-3.624.104-1.197.207-2.426.31-3.69-.035-.218-.018-.457.05-.718.173-1.697.345-3.384.518-5.06.172-1.675.378-3.34.62-4.995.137-.956.284-1.926.438-2.906.155-.977.37-1.924.646-2.837.378-1.132.946-2.045 1.704-2.743.757-.695 1.53-1.37 2.324-2.022 1.55-1.263 3.193-2.34 4.93-3.232 1.74-.892 3.538-1.402 5.397-1.534h1.163c.5 0 .903.153 1.213.456h13.735c.654 0 .956.36.904 1.078-.052.72-.267 1.524-.645 2.416-.38.893-.793 1.74-1.24 2.546-.448.807-.724 1.273-.826 1.403-.654.96-1.342 1.862-2.065 2.712-.724.848-1.5 1.643-2.324 2.38-.483.48-1.025.926-1.627 1.34-.604.413-1.232.62-1.886.62h-7.9c-.07.305-.112.784-.13 1.437-.017.652-.042 1.13-.076 1.435h12.857c.653 0 .946.295.877.882-.07.588-.284 1.263-.646 2.023-.362.763-.767 1.48-1.214 2.155s-.722 1.077-.826 1.207c-.654.96-1.352 1.86-2.09 2.71-.74.85-1.507 1.643-2.3 2.383-.48.48-1.03.664-1.65.555-.62-.108-1.24-.163-1.86-.163h-4.44c0 .13-.01.326-.025.588-.017.26-.034.546-.05.85-.02.305-.027.586-.027.848v.587h17.917c.446-.002.722.173.826.52zM233.852 169.1c-.482.96-1.024 1.81-1.626 2.55-.603.74-1.265 1.48-1.988 2.218-1.31 1.35-2.694 2.567-4.157 3.655-1.462 1.09-2.968 2.112-4.517 3.068 1.48.09 2.91.22 4.286.393.963.176 1.962.383 2.995.62 1.032.24 1.98.665 2.84 1.273.687.48 1.178 1.143 1.47 1.99.293.85.198 1.73-.283 2.646-.93 1.785-2.048 3.32-3.356 4.603-1.308 1.284-2.685 2.492-4.13 3.623-1.446 1.133-2.9 2.187-4.363 3.167-1.463.98-2.97 1.926-4.518 2.84-1.756 1.09-3.52 2.11-5.293 3.068-1.773.957-3.57 1.872-5.396 2.742l-1.24.587c-.07 0-.12.022-.154.065h-.052c-.483.218-.956.414-1.42.587-.464.175-.938.326-1.42.458-.964.216-1.825.325-2.582.325h-.542c-.19 0-.387-.043-.594-.13h-.155c0-.043-.017-.064-.05-.064h-.053c-.38-.13-.62-.392-.723-.783-.102-.348-.085-.675.052-.98.207-3.568.465-7.247.775-11.034.276-3.045.542-6.08.8-9.105.258-3.023.594-6.038 1.007-9.04.137-1.046.276-2.09.414-3.136.137-1.044.344-2.066.62-3.067.343-1.263.91-2.273 1.704-3.035.79-.76 1.6-1.49 2.427-2.188 1.582-1.308 3.27-2.394 5.06-3.265 1.79-.87 3.63-1.394 5.524-1.568.24 0 .48-.01.723-.032.24-.02.5-.033.774-.033 2.24-.13 4.493-.13 6.766 0 1.032.044 2.073.11 3.124.196 1.05.088 2.073.284 3.072.588.516.175 1.033.35 1.55.522.515.175 1.014.435 1.496.784.31.22.628.5.956.848.327.35.524.74.594 1.177.104.48.112.97.026 1.47-.09.498-.235.967-.442 1.4zm-15.697 23.634c.07-.087.13-.173.18-.26.052-.088.112-.175.182-.263.034-.085.06-.162.078-.227.016-.065.042-.143.077-.23-.07-.26-.138-.456-.206-.587-.448-.433-.98-.76-1.6-.98-.69-.216-1.404-.38-2.144-.488-.74-.11-1.472-.206-2.194-.294h-.207c-.137 1.393-.257 2.797-.36 4.21-.104 1.415-.207 2.84-.31 4.277l.413-.26.413-.263c.137-.086.26-.15.362-.195.585-.392 1.144-.783 1.678-1.175.533-.392 1.093-.827 1.678-1.306.068-.042.207-.15.413-.325.172-.218.362-.402.568-.557.207-.15.396-.335.568-.555l.412-.52zM218 171.517c-.62-.173-1.24-.304-1.858-.392-.62-.087-1.24-.172-1.86-.262l-.464 3.526c-.104.74-.2 1.467-.284 2.185-.086.72-.164 1.448-.232 2.188l1.704-.98c.17-.13.37-.27.594-.425.224-.15.404-.27.542-.357.24-.172.473-.337.696-.49.224-.15.44-.335.646-.554.104-.042.224-.15.362-.327.172-.13.327-.272.465-.424.138-.152.293-.294.465-.425.068-.086.13-.174.18-.26.053-.087.112-.174.182-.262.207-.262.344-.458.414-.588.07-.086.138-.26.208-.522-.034-.173-.12-.392-.258-.652-.207-.217-.44-.402-.697-.556-.26-.15-.528-.292-.803-.423zm-.052 21.544c.137-.128.258-.247.362-.357.103-.108-.035.01-.414.358h.052zM286.388 164.63c-.052.718-.267 1.523-.645 2.414-.38.894-.792 1.743-1.24 2.548-.447.805-.723 1.27-.825 1.402-.654.957-1.342 1.86-2.065 2.71s-1.498 1.643-2.323 2.383c-.483.48-1.025.924-1.627 1.338-.603.414-1.23.62-1.885.62h-7.9c-.07.305-.112.784-.13 1.437-.017.652-.042 1.132-.076 1.436h12.857c.652 0 .945.295.876.882-.07.588-.284 1.264-.645 2.024-.36.762-.766 1.48-1.213 2.154-.447.675-.723 1.076-.826 1.208-.653.957-1.35 1.86-2.09 2.708-.74.85-1.506 1.645-2.298 2.384-.483.48-1.033.926-1.652 1.338-.62.415-1.24.62-1.858.62h-4.44l-.31 4.277c-.105 1.414-.208 2.84-.31 4.276.068.303.05.597-.052.878-.104.285-.242.557-.413.817-.173.262-.36.5-.568.72-.208.216-.38.39-.518.52-.757.697-1.548 1.297-2.375 1.796-.827.502-1.687.947-2.582 1.34-.826.392-1.704.75-2.633 1.077-.93.327-1.842.49-2.736.49-.723.13-1.464.02-2.22-.327-.483-.306-.62-.806-.414-1.5.137-2.048.274-4.07.413-6.073.138-2.002.292-4.025.465-6.07.24-3.047.5-6.073.774-9.076.275-3.002.62-6.005 1.033-9.01.137-.955.284-1.924.438-2.903s.37-1.926.646-2.84c.38-1.132.947-2.046 1.705-2.743.757-.695 1.53-1.37 2.323-2.022 1.55-1.263 3.193-2.34 4.93-3.232 1.74-.893 3.538-1.403 5.397-1.533h1.162c.5 0 .903.152 1.213.457h13.735c.653 0 .955.357.903 1.075zM326.43 171.517c.93 1.872 1.532 3.842 1.808 5.908.276 2.068.328 4.19.155 6.366-.344 3.655-1.3 6.91-2.865 9.76-1.567 2.85-3.47 5.32-5.706 7.41-2.237 2.09-4.69 3.82-7.357 5.19-2.668 1.37-5.275 2.405-7.823 3.102-2.135.608-4.27.85-6.402.718h-.568c-.206 0-.396-.022-.567-.066-.964-.13-1.902-.336-2.814-.618-.91-.284-1.798-.664-2.658-1.144-1.48-.827-2.823-1.947-4.028-3.362-1.205-1.414-2.168-3.034-2.89-4.864-.828-2.045-1.318-4.188-1.473-6.43-.153-2.24-.033-4.45.363-6.626.396-2.177 1.024-4.265 1.884-6.27.86-2 1.91-3.785 3.15-5.352 2.133-2.742 4.543-5.005 7.228-6.79 2.685-1.783 5.474-3.2 8.364-4.243 2.408-.87 4.88-1.393 7.41-1.567 2.53-.173 4.98.262 7.357 1.306 1.55.697 2.968 1.687 4.26 2.97s2.347 2.82 3.174 4.603zm-21.375.26c-.552-.172-1.154-.304-1.808-.392-.07 0-.147-.01-.232-.032-.086-.02-.164-.033-.232-.033-.07.088-.12.132-.154.132l-.312.392c-.138.174-.275.35-.413.52-.138.176-.275.372-.412.59-.174.26-.346.532-.517.815-.174.282-.345.554-.517.815-1.55 2.96-2.446 6.16-2.687 9.597-.07 2.35.19 4.602.775 6.756.585 2.156 1.498 4.104 2.737 5.844 1.48 1.872 3.27 3.22 5.37 4.048.55.174 1.136.305 1.755.392.104.044.275.065.517.065.07-.087.12-.132.154-.132l.312-.392c.137-.172.274-.348.413-.52.137-.176.275-.37.413-.59l.517-.784c.172-.26.344-.543.516-.85 1.447-2.784 2.324-5.852 2.635-9.203.034-.088.052-.197.052-.328.068-2.35-.19-4.612-.775-6.79-.585-2.176-1.497-4.135-2.735-5.875-1.484-1.87-3.274-3.22-5.372-4.048zM375.277 205.727c.104.26.104.544 0 .848-.104.305-.25.6-.44.88-.188.286-.395.536-.618.753-.226.218-.39.37-.492.457-.757.696-1.55 1.295-2.375 1.795s-1.67.968-2.53 1.403c-.896.393-1.79.73-2.686 1.013-.896.283-1.807.467-2.735.555-.414 0-.896-.02-1.447-.064-.55-.044-.963-.348-1.237-.914-.414-1-.827-1.98-1.24-2.938-.412-.956-.844-1.913-1.29-2.87l-9.295-21.546c-.345.175-.68.35-1.007.522-.327.175-.68.35-1.06.522-.48 5.7-.895 11.382-1.238 17.04-.38.87-.896 1.566-1.548 2.09-.242.216-.466.413-.672.586-.207.175-.43.35-.672.522-.86.653-1.756 1.208-2.685 1.665-.93.456-1.876.86-2.84 1.208-.757.26-1.54.48-2.35.65-.81.176-1.608.198-2.4.067-.653 0-1.12-.305-1.394-.915.034-.13.052-.27.052-.424v-.423c.137-1.87.267-3.722.387-5.55.12-1.827.267-3.677.44-5.548.24-3.048.497-6.095.773-9.142.275-3.045.602-6.072.98-9.074.172-1.045.327-2.09.465-3.134.138-1.045.344-2.067.62-3.067.344-1.264.903-2.264 1.678-3.004.775-.74 1.593-1.48 2.454-2.22 1.582-1.308 3.26-2.395 5.034-3.266 1.772-.87 3.605-1.37 5.5-1.5.274-.045.532-.067.772-.067s.482-.02.725-.065c2.27-.04 4.543-.04 6.815 0 1.033.088 2.065.176 3.1.262 1.032.088 2.045.283 3.044.587.517.133 1.04.285 1.575.46.53.173 1.04.434 1.522.78.31.22.62.503.93.85.31.35.517.764.62 1.24.104.48.11.97.024 1.47s-.23.947-.438 1.34c-1 1.784-2.204 3.394-3.615 4.83-.31.35-.628.664-.955.946-.328.283-.664.578-1.007.882.38.87.74 1.71 1.086 2.514.344.806.704 1.644 1.083 2.513 1.79 4.092 3.56 8.173 5.318 12.242 1.758 4.068 3.513 8.15 5.27 12.24zm-27.212-30.88c-.104.74-.197 1.48-.284 2.22-.085.74-.162 1.48-.23 2.22.274-.175.558-.348.853-.522.29-.173.576-.348.85-.523.174-.13.37-.27.595-.424.223-.152.404-.27.542-.358.24-.174.466-.337.672-.49l.67-.49c.105-.13.225-.237.363-.325.172-.173.326-.326.464-.458.137-.13.292-.282.463-.456l.362-.456c.068-.087.138-.185.207-.294.067-.108.138-.206.206-.294l.154-.588c0-.173-.068-.392-.205-.652-.414-.392-.93-.696-1.55-.914-.586-.218-1.187-.37-1.808-.456-.62-.088-1.24-.153-1.86-.197-.207 1.085-.36 2.24-.465 3.456zM419.216 164.4c.24-.087.725-.228 1.447-.424.722-.196 1.445-.326 2.17-.393.72-.064 1.35.023 1.882.262.535.24.732.773.594 1.6-.276 1.655-.55 3.33-.826 5.027-.274 1.696-.552 3.373-.826 5.026-.722 4.527-1.445 9.02-2.168 13.482-.723 4.46-1.463 8.955-2.22 13.48-.38.87-.878 1.566-1.498 2.09-.24.217-.474.4-.697.555-.225.15-.44.336-.645.555-1.825 1.262-3.685 2.22-5.577 2.872-.723.26-1.49.48-2.3.652-.808.175-1.607.197-2.4.066-.62 0-1.082-.305-1.393-.914-.07-.086-.11-.186-.13-.294-.017-.11-.06-.206-.13-.294-.757-1.653-1.514-3.285-2.27-4.896-.76-1.61-1.517-3.22-2.272-4.832-.31.742-.63 1.482-.956 2.222-.327.74-.662 1.48-1.006 2.22-.31.738-.723 1.36-1.24 1.86s-1.05.946-1.6 1.338c-1.826 1.262-3.684 2.22-5.578 2.872-.72.26-1.49.48-2.297.652-.81.175-1.608.197-2.4.066-.62 0-1.084-.305-1.394-.914-.345-1.74-.688-3.47-1.033-5.19-.344-1.72-.688-3.45-1.032-5.19-.896-4.48-1.772-8.922-2.633-13.317-.86-4.397-1.722-8.836-2.58-13.32-.07-.304-.053-.598.05-.88.104-.284.242-.557.414-.817.172-.26.353-.5.542-.717.19-.22.37-.392.543-.523.758-.696 1.55-1.305 2.375-1.828.826-.52 1.67-.98 2.53-1.37.895-.393 1.79-.73 2.685-1.012.895-.283 1.808-.468 2.737-.556h.62c.274 0 .55.022.825.065.275.044.533.13.775.26.24.132.395.35.464.654l2.014 10.38c.274 1.35.543 2.688.8 4.016.26 1.328.525 2.666.8 4.016.344-.48.716-.902 1.11-1.273.397-.37.818-.708 1.267-1.012 1.687-1.22 3.527-2.176 5.525-2.873.756-.262 1.54-.478 2.35-.653.807-.173 1.608-.195 2.4-.065.55 0 1.015.306 1.394.915.032.13.12.325.258.586.24.437.43.872.568 1.308.275-1.61.534-3.198.773-4.766.24-1.567.498-3.134.775-4.7.38-.87.896-1.566 1.548-2.09.208-.217.423-.4.647-.556.224-.15.455-.335.696-.554 1.69-1.218 3.53-2.177 5.526-2.874zM464.397 202.33c.067.306.052.6-.052.883-.104.285-.24.555-.413.815-.174.26-.37.502-.595.72-.224.218-.404.39-.542.52-.724.697-1.506 1.297-2.35 1.795-.843.502-1.695.947-2.556 1.34-.86.435-1.748.782-2.66 1.044-.912.262-1.815.435-2.71.522-.174 0-.387.01-.646.03-.257.022-.533 0-.825-.063-.294-.065-.553-.163-.776-.294-.224-.132-.37-.35-.438-.652-.346-1.392-.672-2.808-.982-4.243-.31-1.437-.638-2.873-.98-4.31-.242-1.087-.48-2.163-.723-3.23-.24-1.066-.482-2.144-.723-3.23h-6.557c-.38 1.52-.74 3.057-1.085 4.602-.345 1.543-.688 3.078-1.033 4.602-.172.696-.585 1.315-1.238 1.86-.655.545-1.206.99-1.65 1.338-.863.61-1.758 1.154-2.69 1.632-.928.48-1.874.894-2.838 1.24-.205.088-.68.23-1.42.425-.74.196-1.48.315-2.22.36-.74.042-1.376-.057-1.91-.296-.534-.237-.715-.77-.544-1.598 1.206-5.223 2.42-10.412 3.64-15.57 1.225-5.157 2.59-10.282 4.106-15.375.207-.652.404-1.306.593-1.958.192-.653.406-1.284.648-1.895.55-1.48 1.342-2.742 2.375-3.786.963-1 1.98-1.917 3.046-2.743s2.167-1.588 3.304-2.285c1.136-.695 2.33-1.315 3.588-1.86 1.256-.544 2.505-.923 3.745-1.144.86-.172 1.745-.293 2.658-.357.912-.064 1.764.143 2.556.62.793.436 1.352 1.165 1.68 2.188.326 1.023.628 2.014.903 2.97.345 1.22.662 2.427.955 3.624.292 1.198.595 2.427.902 3.688 1.137 4.658 2.238 9.314 3.306 13.97 1.067 4.658 2.118 9.36 3.15 14.1zm-18.69-14.36c-.277-1.09-.535-2.177-.776-3.266-.24-1.087-.498-2.197-.773-3.33-.173-.607-.32-1.218-.438-1.827-.122-.608-.27-1.22-.44-1.827-.276 1.132-.56 2.24-.852 3.33-.294 1.087-.577 2.176-.853 3.263l-.93 3.722c.172-.043.32-.065.44-.065H445.705zM511.642 205.727c.104.26.104.544 0 .848-.104.305-.25.6-.438.88-.19.286-.396.536-.62.753-.223.218-.386.37-.49.457-.757.696-1.55 1.295-2.374 1.795-.827.5-1.67.968-2.53 1.403-.897.393-1.79.73-2.686 1.013-.896.283-1.808.467-2.737.555-.413 0-.896-.02-1.445-.064-.55-.044-.965-.348-1.24-.914-.412-1-.825-1.98-1.238-2.938-.413-.956-.844-1.913-1.29-2.87l-9.296-21.546c-.344.175-.68.35-1.006.522-.327.175-.68.35-1.06.522-.48 5.7-.896 11.382-1.237 17.04-.38.87-.896 1.566-1.55 2.09-.242.216-.465.413-.67.586-.208.175-.433.35-.673.522-.86.653-1.755 1.208-2.686 1.665-.928.456-1.876.86-2.838 1.208-.76.26-1.543.48-2.35.65-.81.176-1.61.198-2.4.067-.656 0-1.12-.305-1.397-.915.036-.13.053-.27.053-.424v-.423c.14-1.87.267-3.722.39-5.55.12-1.827.266-3.677.437-5.548.24-3.048.498-6.095.773-9.142.276-3.045.603-6.072.98-9.074.172-1.045.328-2.09.466-3.134.136-1.045.343-2.067.62-3.067.342-1.264.902-2.264 1.676-3.004.775-.74 1.593-1.48 2.454-2.22 1.583-1.308 3.26-2.395 5.033-3.266 1.773-.87 3.605-1.37 5.5-1.5.274-.045.533-.067.774-.067s.48-.02.724-.065c2.27-.04 4.545-.04 6.816 0 1.032.088 2.065.176 3.098.262 1.033.088 2.047.283 3.047.587.518.133 1.042.285 1.575.46s1.04.434 1.523.78c.31.22.62.503.93.85.31.35.516.764.62 1.24.103.48.11.97.024 1.47s-.232.947-.438 1.34c-1 1.784-2.205 3.394-3.614 4.83-.312.35-.63.664-.956.946-.328.283-.664.578-1.007.882.38.87.74 1.71 1.084 2.514.346.806.706 1.644 1.085 2.513 1.79 4.092 3.563 8.173 5.318 12.242 1.76 4.068 3.514 8.15 5.27 12.24zm-27.21-30.88c-.104.74-.2 1.48-.285 2.22-.086.74-.164 1.48-.23 2.22.273-.175.557-.348.85-.522.293-.173.577-.348.853-.523.173-.13.37-.27.595-.424.223-.152.403-.27.542-.358.24-.174.465-.337.67-.49.208-.15.432-.314.672-.49.103-.13.223-.237.36-.325.172-.173.327-.326.465-.458.138-.13.292-.282.465-.456l.362-.456c.068-.087.136-.185.205-.294.07-.108.138-.206.207-.294l.154-.588c0-.173-.068-.392-.206-.652-.412-.392-.93-.696-1.55-.914-.585-.218-1.187-.37-1.806-.456-.62-.088-1.24-.153-1.86-.197-.207 1.085-.36 2.24-.464 3.456zM554.136 167.927c.276 1.09.336 2.263.182 3.525s-.422 2.394-.8 3.394c-.552 1.525-1.214 2.962-1.988 4.31-.775 1.35-1.628 2.644-2.557 3.884s-1.893 2.428-2.89 3.56c-1 1.132-1.998 2.22-2.996 3.264-2.1 2.22-4.27 4.31-6.506 6.267-2.238 1.96-4.51 3.853-6.814 5.68-1 .828-2.006 1.624-3.02 2.385-1.017.76-2.04 1.513-3.073 2.252-1.688 1.218-3.546 2.155-5.577 2.808-.724.26-1.49.48-2.3.65-.808.176-1.607.22-2.4.133-.377 0-.722-.153-1.032-.458-.17-.13-.274-.282-.31-.457-.033 0-.05-.02-.05-.065-.07-.26-.053-.543.05-.848.07-1.22.148-2.426.232-3.623.087-1.197.18-2.404.284-3.623.24-3.047.483-6.082.724-9.107s.532-6.04.877-9.043c.173-1.305.337-2.6.492-3.884.155-1.282.335-2.556.54-3.82.14-.825.312-1.686.518-2.577.208-.893.568-1.643 1.085-2.254 1.652-1.828 3.545-3.427 5.68-4.8 2.135-1.37 4.27-2.228 6.402-2.577.93-.174 1.868-.315 2.814-.425.948-.107 1.885-.206 2.815-.294 2.547-.217 5.128-.294 7.744-.23s5.163.6 7.64 1.602c.86.35 1.705.88 2.532 1.598.827.716 1.396 1.64 1.704 2.773zm-20.654 20.76c.79-.956 1.558-1.946 2.3-2.972.738-1.02 1.436-2.098 2.09-3.23.482-.87.895-1.796 1.24-2.774s.566-1.99.67-3.034c0-.61-.06-1.208-.182-1.796-.12-.588-.335-1.12-.645-1.6-.413-.435-.86-.794-1.342-1.076-.483-.283-.98-.533-1.498-.75-1.55-.437-3.133-.697-4.75-.785-.14-.044-.38-.066-.723-.066h-1.033c-.14.74-.252 1.447-.337 2.122-.087.676-.18 1.382-.284 2.12-.413 3.396-.768 6.79-1.06 10.187-.293 3.395-.576 6.79-.852 10.185l1.24-1.175c.55-.48 1.083-.98 1.6-1.5.517-.525 1.016-1.047 1.497-1.57.17-.173.318-.324.44-.456.12-.13.266-.282.437-.457l.053-.065c.17-.218.36-.434.567-.653.21-.22.398-.436.57-.655zM568.335 201.94c.104.74-.087 1.35-.568 1.827-.172.218-.335.402-.49.555-.154.152-.318.338-.49.555-.757.697-1.55 1.297-2.375 1.795-.826.502-1.688.97-2.582 1.404-.86.392-1.74.718-2.633.98-.896.262-1.807.435-2.735.52-.725.133-1.465.023-2.222-.324l-.464-.588v-3.395c-.104-.74.084-1.35.566-1.83.172-.216.337-.4.49-.555.156-.15.318-.336.492-.555.756-.695 1.548-1.306 2.374-1.828.828-.522 1.687-.98 2.582-1.37.86-.392 1.74-.73 2.634-1.012s1.807-.467 2.736-.555c.38-.044.748-.044 1.11 0 .36.043.73.173 1.11.392l.464.587v3.395zm2.582-41.325c.62 0 1.085.326 1.394.98v.85c-.032.216-.06.455-.076.717-.017.26-.044.5-.076.718-.413 4.57-.836 9.097-1.265 13.58-.433 4.483-.854 9.01-1.266 13.58-.346.78-.844 1.456-1.498 2.02-.242.22-.476.416-.698.588-.225.176-.457.35-.697.523-.86.653-1.755 1.208-2.686 1.666-.93.457-1.876.86-2.84 1.207-.758.262-1.532.48-2.324.652-.792.175-1.583.22-2.375.13-.62 0-1.082-.324-1.394-.978 0-.348.018-.63.053-.85 0-.217.006-.457.024-.718.018-.262.043-.523.078-.784.413-4.525.834-9.03 1.265-13.515.43-4.48.853-9.007 1.265-13.577.344-.783.86-1.48 1.55-2.09.207-.174.42-.348.645-.522.225-.172.456-.367.697-.586.86-.61 1.756-1.152 2.685-1.633.93-.476 1.875-.89 2.84-1.24.756-.216 1.53-.424 2.323-.618.79-.196 1.58-.23 2.374-.097z"/></g></svg>