<svg xmlns="http://www.w3.org/2000/svg" width="687.5" height="314.375" viewBox="0 0 687.5 314.375"><path fill="#FFF" d="M347.664 307.016l-209.747-62.982L326.062-.126h43.204l188.144 244.16"/><g fill="#99C5B5" stroke="#FFF" stroke-width="3" stroke-miterlimit="10"><path d="M185.418 50.054c-.617 1.122-1.31 2.115-2.08 2.982-.77.866-1.618 1.732-2.542 2.6-1.673 1.58-3.445 3.006-5.314 4.28-1.87 1.273-3.796 2.472-5.776 3.592 1.892.102 3.718.255 5.48.458 1.23.205 2.507.448 3.828.727 1.32.28 2.53.777 3.63 1.49.88.562 1.508 1.338 1.882 2.332.374.993.253 2.026-.363 3.096-1.188 2.09-2.618 3.888-4.29 5.39-1.674 1.504-3.434 2.918-5.283 4.243-1.848 1.326-3.708 2.56-5.578 3.708-1.87 1.147-3.796 2.256-5.776 3.325-2.245 1.275-4.5 2.473-6.767 3.594-2.268 1.12-4.567 2.19-6.9 3.21l-1.583.686c-.09 0-.155.027-.198.077h-.067c-.617.256-1.22.485-1.815.688-.595.206-1.2.383-1.815.536-1.232.255-2.333.382-3.3.382h-.695c-.242 0-.495-.05-.76-.153h-.197c0-.05-.02-.077-.065-.077h-.065c-.484-.153-.792-.458-.924-.917-.132-.406-.11-.79.066-1.145.263-4.178.593-8.485.99-12.92.353-3.565.693-7.12 1.023-10.662.33-3.542.76-7.07 1.288-10.587.175-1.223.35-2.446.528-3.668.177-1.223.44-2.42.793-3.593.44-1.478 1.165-2.662 2.18-3.554 1.01-.89 2.045-1.744 3.102-2.56 2.023-1.53 4.18-2.802 6.47-3.822 2.288-1.02 4.643-1.63 7.063-1.834.308 0 .616-.012.924-.038.307-.025.637-.038.99-.038 2.86-.153 5.743-.153 8.65 0 1.318.05 2.65.128 3.992.23 1.342.102 2.65.33 3.928.687.66.205 1.32.408 1.98.61.66.205 1.298.51 1.915.918.396.255.803.586 1.22.994.42.408.67.866.76 1.375.132.562.143 1.134.034 1.72-.11.585-.298 1.133-.562 1.642zm-20.07 27.672c.088-.102.166-.203.232-.306.065-.102.142-.203.23-.306.043-.1.076-.19.1-.268.022-.077.054-.165.1-.268-.09-.306-.177-.534-.265-.688-.573-.51-1.255-.89-2.047-1.146-.88-.254-1.794-.446-2.74-.574-.947-.126-1.882-.24-2.806-.343h-.264c-.176 1.63-.33 3.274-.463 4.93-.132 1.657-.264 3.325-.396 5.007l.528-.306c.175-.102.35-.204.528-.306.175-.102.33-.178.46-.23.75-.457 1.464-.916 2.147-1.374.682-.458 1.397-.967 2.146-1.53.086-.05.263-.177.527-.38.22-.255.462-.47.726-.65.264-.18.505-.395.727-.65l.53-.612zm-.197-24.844c-.79-.203-1.583-.355-2.375-.458-.792-.102-1.585-.203-2.376-.306l-.596 4.128c-.132.866-.253 1.72-.362 2.56-.11.84-.21 1.695-.298 2.56l2.18-1.145c.218-.153.47-.317.76-.497.284-.178.516-.317.692-.42.307-.203.605-.394.89-.573.287-.178.562-.394.826-.65.132-.05.286-.177.462-.38.22-.154.417-.318.594-.498.175-.178.374-.344.594-.498.087-.1.166-.203.232-.305.066-.104.142-.205.23-.307.265-.306.44-.535.53-.688.086-.103.174-.306.263-.612-.045-.203-.155-.458-.33-.764-.264-.256-.56-.472-.89-.65-.332-.18-.674-.344-1.026-.498zm-.065 25.225c.174-.153.33-.292.46-.42.133-.127-.043.013-.527.42h.067zM236.455 87.363c.11.254.11.53 0 .828s-.267.584-.468.86c-.202.276-.422.52-.66.732-.24.213-.412.36-.522.445-.806.68-1.648 1.262-2.528 1.75-.88.488-1.778.943-2.693 1.37-.954.38-1.906.71-2.858.986-.954.275-1.924.456-2.913.54-.44 0-.954-.02-1.54-.062-.587-.042-1.026-.34-1.32-.89-.44-.977-.878-1.93-1.318-2.864-.44-.933-.9-1.867-1.375-2.8l-9.894-21.003c-.367.17-.725.34-1.072.51-.35.168-.724.34-1.126.508-.514 5.56-.954 11.098-1.32 16.613-.403.85-.953 1.528-1.648 2.037-.257.212-.495.404-.714.572-.22.17-.46.34-.714.51-.917.636-1.87 1.176-2.86 1.623-.988.445-1.997.838-3.022 1.177-.807.254-1.64.466-2.5.636-.863.17-1.715.19-2.557.063-.697 0-1.192-.296-1.484-.89.035-.127.054-.265.054-.414v-.414c.146-1.824.284-3.628.413-5.41.128-1.782.283-3.584.467-5.41.256-2.97.53-5.94.824-8.91.293-2.97.642-5.92 1.045-8.848.183-1.018.348-2.037.495-3.055.146-1.02.366-2.016.66-2.992.366-1.23.962-2.206 1.787-2.928.825-.72 1.694-1.442 2.61-2.165 1.686-1.272 3.472-2.333 5.36-3.182 1.886-.848 3.838-1.336 5.854-1.464.292-.043.567-.064.824-.064.256 0 .512-.02.77-.063 2.418-.042 4.837-.042 7.255 0l3.297.255c1.1.085 2.18.276 3.243.572.55.127 1.108.276 1.677.445.568.17 1.108.424 1.62.764.33.212.66.487.99.826.33.34.55.743.66 1.21.11.466.12.944.028 1.43-.092.49-.248.924-.467 1.306-1.063 1.74-2.346 3.31-3.85 4.71-.33.34-.668.646-1.016.922-.35.277-.706.563-1.07.86.4.848.786 1.665 1.153 2.45.365.785.75 1.602 1.154 2.45 1.904 3.988 3.79 7.966 5.66 11.933 1.867 3.97 3.736 7.948 5.605 11.936zm-28.97-30.105c-.108.722-.21 1.443-.3 2.164-.092.722-.175 1.442-.25 2.164.294-.17.596-.34.908-.51.31-.17.613-.34.907-.51.183-.126.394-.264.632-.413.237-.148.43-.264.577-.35.255-.17.494-.328.713-.478.22-.148.458-.308.714-.478.11-.127.238-.232.385-.318.183-.17.348-.32.495-.447.146-.127.31-.275.495-.445l.385-.446c.072-.084.146-.18.22-.286.073-.105.146-.2.22-.287l.165-.574c0-.17-.074-.382-.22-.637-.44-.382-.99-.68-1.65-.89-.622-.213-1.264-.36-1.923-.447-.66-.085-1.32-.148-1.98-.19-.22 1.062-.383 2.187-.494 3.375zM276.306 77.18c.11.34.1.752-.028 1.24s-.33 1.04-.604 1.655c-.275.615-.56 1.188-.852 1.718-.294.53-.568.986-.825 1.368-.257.384-.422.617-.495.702-1.393 1.952-2.95 3.627-4.672 5.028-.513.425-1.1.85-1.758 1.272-.66.425-1.32.637-1.98.637H245.91c-.953.253-1.868.38-2.747.38-.77.128-1.557.022-2.363-.317-.514-.296-.66-.785-.44-1.464.147-1.995.293-3.968.44-5.92.146-1.95.31-3.924.494-5.92l.33-3.532c.11-1.167.22-2.364.33-3.596-.036-.212-.018-.446.056-.7.184-1.655.366-3.3.55-4.933.183-1.634.403-3.257.66-4.87.146-.933.302-1.878.467-2.833.165-.955.394-1.877.688-2.77.404-1.102 1.01-1.993 1.815-2.672.806-.678 1.63-1.336 2.474-1.974 1.648-1.23 3.397-2.28 5.25-3.15 1.85-.868 3.764-1.367 5.743-1.495h1.237c.53 0 .96.15 1.292.445h14.622c.696 0 1.017.35.962 1.05-.055.7-.284 1.486-.687 2.354-.405.87-.844 1.698-1.32 2.483-.477.785-.77 1.24-.88 1.368-.696.934-1.428 1.814-2.198 2.642-.77.827-1.594 1.602-2.474 2.323-.514.467-1.09.902-1.73 1.304-.643.404-1.312.605-2.007.605h-8.41c-.073.297-.12.763-.137 1.4-.02.636-.046 1.103-.083 1.4h13.687c.696 0 1.008.286.935.858-.074.573-.303 1.23-.687 1.974-.385.742-.815 1.443-1.292 2.1-.477.658-.77 1.05-.88 1.177-.696.933-1.438 1.813-2.226 2.64s-1.604 1.603-2.446 2.324c-.512.468-1.098.647-1.758.54-.66-.104-1.32-.158-1.98-.158h-4.727c0 .127-.01.318-.026.573-.02.253-.04.53-.056.826-.02.298-.028.573-.028.828v.572h19.075c.472.004.766.174.876.513zM320.39 84.053c.073.297.055.583-.056.86-.11.276-.256.54-.44.795-.183.254-.393.488-.63.7l-.578.51c-.77.678-1.605 1.262-2.502 1.75-.898.487-1.805.922-2.72 1.304-.918.425-1.86.763-2.832 1.018-.97.254-1.933.423-2.886.51-.184 0-.413.01-.687.03-.276.022-.57 0-.88-.062-.312-.064-.586-.16-.824-.287-.24-.126-.395-.34-.468-.635-.367-1.358-.714-2.737-1.044-4.137-.33-1.4-.68-2.8-1.044-4.2-.257-1.06-.514-2.11-.77-3.152-.257-1.04-.514-2.09-.77-3.15h-6.98c-.404 1.486-.79 2.982-1.155 4.487-.367 1.507-.733 3.002-1.1 4.487-.183.68-.623 1.284-1.318 1.814-.696.53-1.284.966-1.76 1.305-.916.594-1.87 1.124-2.858 1.59-.99.468-2 .87-3.024 1.21-.22.084-.724.223-1.51.414-.79.19-1.577.307-2.365.35-.786.042-1.464-.054-2.032-.286-.568-.234-.76-.753-.578-1.56 1.283-5.092 2.575-10.152 3.876-15.18 1.3-5.028 2.756-10.024 4.37-14.99.22-.636.43-1.272.632-1.908.2-.637.43-1.25.687-1.846.586-1.442 1.43-2.673 2.528-3.69 1.026-.977 2.107-1.868 3.244-2.674 1.135-.806 2.31-1.548 3.518-2.228 1.208-.678 2.482-1.283 3.82-1.814 1.337-.53 2.666-.9 3.985-1.114.916-.168 1.86-.286 2.83-.35.972-.063 1.88.138 2.723.604.842.425 1.437 1.136 1.786 2.132.347.998.667 1.963.96 2.896.367 1.188.706 2.366 1.02 3.532.31 1.168.63 2.366.96 3.596 1.208 4.54 2.38 9.08 3.518 13.62 1.134 4.542 2.253 9.125 3.352 13.75zm-19.9-14.002c-.293-1.06-.567-2.12-.824-3.18-.256-1.062-.53-2.144-.824-3.248-.184-.593-.34-1.187-.467-1.78-.13-.595-.285-1.19-.468-1.783-.294 1.103-.596 2.185-.907 3.246-.312 1.06-.614 2.122-.907 3.182l-.99 3.627c.184-.042.34-.063.468-.063h4.921zM372.225 92.327c.11.254.1.53-.03.828-.128.296-.29.582-.49.86-.203.274-.425.518-.66.73-.24.212-.413.36-.522.446-.77.68-1.604 1.274-2.5 1.783-.9.51-1.808.955-2.724 1.336-.916.38-1.86.71-2.83.986-.972.275-1.934.456-2.887.54-.44 0-.962-.02-1.566-.062-.604-.043-1.054-.34-1.347-.89-.44-.977-.88-1.932-1.32-2.865-.437-.935-.878-1.87-1.317-2.8-1.868-3.99-3.73-7.926-5.58-11.808-1.852-3.883-3.71-7.797-5.578-11.743h-.055c-.257 2.544-.505 5.09-.743 7.636-.238 2.545-.504 5.092-.796 7.638-.403.85-.935 1.527-1.594 2.037-.514.425-1.036.808-1.566 1.147-.53.34-1.07.68-1.622 1.018-1.173.595-2.445 1.157-3.82 1.687-1.373.53-2.702.795-3.985.795h-.687s-.56-.02-.853-.063c-.294-.043-.56-.127-.797-.255-.238-.128-.412-.34-.52-.637-.11-.254-.093-.573.054-.955.183-1.527.338-3.055.467-4.583.128-1.527.266-3.033.412-4.52.476-4.497.935-8.974 1.374-13.43.44-4.455.88-8.93 1.318-13.43.403-.847.935-1.527 1.594-2.036.476-.298.953-.66 1.43-1.083 1.942-1.23 3.922-2.165 5.938-2.8.77-.256 1.584-.468 2.445-.638.86-.17 1.712-.192 2.555-.064.66 0 1.154.297 1.484.89 0 .17-.01.32-.028.446s-.026.276-.026.446l-.44 4.583s-.293 3.078-.44 4.647c-.072.425-.108.743-.108.955 1.393-1.697 2.766-3.383 4.122-5.06 1.355-1.676 2.71-3.363 4.068-5.06.22-.255.504-.447.852-.574.35-.127.716-.223 1.1-.286.387-.064.762-.096 1.128-.096h.935c1.062 0 2.125.085 3.188.254 1.063.17 2.107.424 3.135.764.254.086.76.254 1.512.51.75.254 1.475.593 2.172 1.02.692.424 1.233.9 1.62 1.43.384.533.336 1.095-.14 1.69-1.428 1.78-2.866 3.542-4.313 5.28-1.448 1.742-2.887 3.5-4.314 5.284.33.722.668 1.422 1.018 2.1.35.68.69 1.38 1.018 2.1 1.87 3.99 3.737 7.967 5.606 11.935 1.858 3.968 3.744 7.946 5.65 11.934zM437.855 48.76c-.074.702-.304 1.486-.688 2.356-.386.87-.824 1.686-1.32 2.45-.493.764-.796 1.21-.905 1.337-1.355 1.952-2.914 3.628-4.672 5.028-.515.425-1.093.85-1.73 1.273-.643.425-1.293.637-1.952.637h-5.827c-.402 3.777-.777 7.532-1.126 11.265-.348 3.734-.724 7.49-1.127 11.266.073.383 0 .755-.22 1.115-.22.362-.478.69-.77.987l-.33.382c-.11.127-.238.233-.387.318-.586.51-1.208.965-1.867 1.37-.66.402-1.34.774-2.033 1.113-1.026.51-2.117.977-3.27 1.4-1.156.423-2.282.658-3.382.7h-.44c-.183 0-.41.01-.687.032-.273.02-.56.01-.853-.03-.293-.044-.558-.14-.796-.288-.238-.15-.412-.374-.52-.67-.11-.21-.092-.508.054-.89.11-.933.21-1.867.303-2.8.093-.934.175-1.868.25-2.802.4-3.776.776-7.52 1.124-11.233.35-3.712.726-7.457 1.128-11.234h-13.246c-.732 0-1.054-.35-.96-1.05.09-.7.327-1.484.712-2.354.386-.87.816-1.697 1.293-2.482.476-.785.77-1.242.88-1.37.694-.932 1.437-1.813 2.226-2.64.787-.828 1.604-1.602 2.446-2.324.512-.423 1.098-.848 1.76-1.273.657-.423 1.317-.636 1.978-.636h33.969c.732 0 1.06.35.988 1.05zM487.16 47.265c.66 0 1.155.298 1.484.89-.036.214-.056.51-.056.892-.184 1.528-.34 3.056-.467 4.583-.127 1.527-.282 3.077-.467 4.646-.44 4.5-.88 8.964-1.32 13.398-.437 4.435-.878 8.9-1.318 13.398-.4.85-.934 1.527-1.594 2.037-.512.423-1.034.816-1.564 1.176s-1.09.69-1.678.987c-1.173.594-2.438 1.157-3.793 1.686-1.354.53-2.676.795-3.957.795h-.715c-.294 0-.587-.022-.88-.064-.293-.042-.56-.126-.796-.254-.24-.127-.396-.34-.468-.636-.11-.254-.093-.573.054-.955.146-1.527.292-3.055.44-4.583.145-1.527.292-3.033.437-4.518.147-1.485.294-2.96.442-4.424.146-1.464.292-2.938.438-4.423-.55.127-1.1.19-1.647.19H455.17l-1.32 12.985c-.402.85-.934 1.527-1.595 2.037-1.062.89-2.124 1.612-3.188 2.163-1.173.594-2.445 1.157-3.82 1.686-1.374.53-2.702.795-3.983.795h-.688s-.56-.022-.853-.064c-.294-.042-.56-.126-.797-.254s-.412-.34-.52-.636c-.11-.254-.094-.573.054-.955.185-1.527.34-3.055.468-4.583.128-1.527.268-3.033.412-4.518.476-4.498.935-8.976 1.374-13.43.44-4.456.88-8.932 1.32-13.43.4-.848.934-1.527 1.594-2.036.476-.297.952-.658 1.428-1.083.953-.593 1.915-1.124 2.888-1.59.97-.468 1.986-.87 3.05-1.21.77-.254 1.585-.466 2.447-.636.86-.17 1.713-.192 2.557-.065.658 0 1.154.298 1.484.89 0 .17-.01.32-.026.447-.02.127-.028.276-.028.445l-.438 4.583c-.147 1.527-.293 3.077-.44 4.646-.108.89-.21 1.782-.302 2.673-.092.89-.174 1.782-.247 2.672h16.215c.184-1.61.348-3.234.495-4.868.145-1.633.292-3.256.438-4.87.22-.423.457-.805.715-1.146.256-.34.567-.636.935-.89.256-.17.495-.34.715-.51.22-.17.458-.36.714-.573.915-.593 1.87-1.124 2.86-1.59.988-.468 1.995-.87 3.022-1.21.805-.254 1.64-.466 2.5-.636.857-.17 1.708-.192 2.55-.065zM530.255 77.18c.11.34.103.752-.026 1.24-.13.488-.33 1.04-.605 1.655-.274.615-.558 1.188-.852 1.718-.294.53-.568.986-.824 1.368-.257.384-.423.617-.496.702-1.393 1.952-2.95 3.627-4.672 5.028-.514.425-1.1.85-1.758 1.272-.66.425-1.32.637-1.98.637H499.86c-.953.253-1.87.38-2.75.38-.77.128-1.56.022-2.363-.317-.513-.296-.66-.785-.44-1.464.147-1.995.295-3.968.44-5.92.146-1.95.312-3.924.496-5.92.108-1.187.22-2.364.33-3.532.107-1.167.22-2.364.33-3.596-.04-.212-.022-.446.054-.7.183-1.655.366-3.3.55-4.933.183-1.634.402-3.257.658-4.87.147-.933.304-1.878.468-2.833.165-.955.395-1.877.688-2.77.403-1.102 1.01-1.993 1.813-2.672.808-.678 1.63-1.336 2.476-1.974 1.647-1.23 3.396-2.28 5.248-3.15 1.85-.868 3.766-1.367 5.744-1.495h1.236c.53 0 .962.15 1.292.445h14.622c.695 0 1.016.35.96 1.05-.054.7-.283 1.486-.687 2.354-.402.87-.844 1.698-1.318 2.483-.478.785-.77 1.24-.88 1.368-.695.934-1.43 1.814-2.2 2.642-.77.827-1.593 1.602-2.472 2.323-.515.467-1.092.902-1.733 1.304-.64.404-1.31.605-2.005.605h-8.41c-.074.297-.12.763-.138 1.4-.022.636-.048 1.103-.083 1.4h13.688c.694 0 1.007.286.935.858-.075.573-.302 1.23-.688 1.974-.385.742-.814 1.443-1.29 2.1-.48.658-.77 1.05-.88 1.177-.696.933-1.438 1.813-2.227 2.64-.79.83-1.604 1.603-2.446 2.324-.516.468-1.102.647-1.76.54-.66-.104-1.32-.158-1.98-.158h-4.727c0 .127-.01.318-.028.573-.02.253-.036.53-.055.826-.02.298-.028.573-.028.828v.572h19.075c.477.004.77.174.878.513zM90.685 82.627c.457-.15 1.376-.398 2.754-.74 1.376-.342 2.753-.57 4.13-.684 1.378-.114 2.574.04 3.59.456 1.018.417 1.394 1.348 1.132 2.79-.526 2.888-1.05 5.81-1.574 8.772-.526 2.96-1.05 5.885-1.574 8.77-1.377 7.9-2.755 15.74-4.132 23.523-1.377 7.785-2.788 15.625-4.23 23.522-.723 1.52-1.672 2.734-2.853 3.645-.46.38-.904.704-1.33.97-.427.266-.836.588-1.23.967-3.477 2.202-7.02 3.872-10.624 5.012-1.377.454-2.838.834-4.378 1.138-1.542.303-3.066.34-4.575.114-1.18 0-2.066-.53-2.656-1.597-.132-.148-.213-.32-.245-.512-.034-.188-.116-.36-.247-.512-1.444-2.886-2.886-5.732-4.33-8.542s-2.886-5.618-4.327-8.43c-.59 1.294-1.198 2.584-1.82 3.875-.625 1.292-1.264 2.583-1.92 3.873-.59 1.292-1.376 2.375-2.36 3.247-.984.874-2 1.65-3.05 2.335-3.477 2.203-7.018 3.873-10.624 5.013-1.377.454-2.838.834-4.378 1.14-1.542.3-3.066.34-4.574.112-1.18 0-2.066-.53-2.657-1.597-.656-3.035-1.312-6.054-1.967-9.055-.656-3-1.313-6.018-1.968-9.056-1.706-7.82-3.378-15.566-5.017-23.238-1.64-7.67-3.28-15.416-4.918-23.238-.13-.53-.1-1.042.1-1.538.195-.493.458-.968.786-1.424.328-.456.672-.872 1.033-1.253.36-.38.704-.684 1.033-.91 1.442-1.216 2.952-2.28 4.525-3.19 1.575-.912 3.182-1.71 4.82-2.392 1.706-.685 3.41-1.27 5.117-1.766 1.705-.494 3.443-.816 5.213-.97h1.18c.525 0 1.05.04 1.575.115.524.077 1.017.228 1.476.456.46.23.754.61.886 1.14l3.837 18.11c.524 2.356 1.032 4.692 1.524 7.007.493 2.317 1 4.652 1.525 7.005.655-.835 1.36-1.575 2.115-2.22.753-.646 1.558-1.234 2.41-1.767 3.213-2.125 6.722-3.796 10.526-5.012 1.442-.456 2.935-.834 4.477-1.14 1.54-.302 3.065-.34 4.574-.113 1.048 0 1.934.532 2.656 1.594.064.228.23.57.492 1.025.458.76.82 1.52 1.083 2.277.524-2.808 1.016-5.582 1.476-8.315.46-2.733.95-5.468 1.477-8.2.722-1.52 1.705-2.735 2.95-3.646.395-.38.805-.702 1.23-.968.427-.266.87-.588 1.33-.97 3.213-2.124 6.722-3.795 10.528-5.01zM148.328 137.964c.137.425.125.942-.035 1.55-.162.61-.413 1.3-.756 2.07-.343.77-.7 1.485-1.065 2.148-.368.664-.71 1.233-1.03 1.71-.322.478-.528.77-.62.876-1.74 2.44-3.687 4.535-5.84 6.285-.642.532-1.374 1.062-2.198 1.59-.825.532-1.65.797-2.473.797h-23.98c-1.19.32-2.336.478-3.436.478-.96.16-1.947.025-2.955-.4-.643-.37-.825-.98-.55-1.83.182-2.49.366-4.957.55-7.398.182-2.44.388-4.905.618-7.398.137-1.484.275-2.956.413-4.416.138-1.458.275-2.956.413-4.495-.046-.264-.024-.556.068-.874.23-2.07.458-4.124.688-6.167.23-2.042.503-4.07.825-6.087.182-1.166.378-2.347.584-3.54.206-1.193.492-2.347.86-3.46.503-1.38 1.258-2.493 2.267-3.342 1.007-.847 2.038-1.67 3.09-2.465 2.063-1.538 4.25-2.85 6.563-3.938 2.312-1.087 4.706-1.71 7.18-1.87h1.546c.663 0 1.202.186 1.615.557h18.277c.87 0 1.27.438 1.202 1.312-.068.875-.355 1.857-.858 2.943-.506 1.087-1.055 2.12-1.65 3.102-.596.983-.962 1.552-1.1 1.71-.87 1.168-1.786 2.268-2.748 3.303-.962 1.034-1.993 2.003-3.092 2.904-.643.583-1.363 1.126-2.165 1.63s-1.638.755-2.508.755h-10.513c-.093.372-.15.955-.172 1.75-.024.795-.058 1.38-.103 1.75h17.108c.87 0 1.26.358 1.168 1.074-.092.715-.378 1.538-.86 2.465-.48.93-1.02 1.804-1.614 2.625-.595.824-.96 1.313-1.1 1.473-.87 1.167-1.797 2.268-2.78 3.302-.987 1.034-2.005 2.002-3.06 2.904-.642.583-1.373.808-2.198.675-.824-.13-1.65-.2-2.473-.2h-5.908c0 .16-.012.4-.035.717-.024.318-.046.664-.07 1.034-.022.37-.033.716-.033 1.034v.716h23.842c.598 0 .964.214 1.102.638zM203.02 106.06c-.64 1.168-1.362 2.203-2.164 3.104-.802.903-1.683 1.804-2.645 2.706-1.74 1.645-3.583 3.13-5.53 4.455-1.947 1.327-3.95 2.574-6.012 3.74 1.97.107 3.87.265 5.703.477 1.283.213 2.612.465 3.986.756 1.374.292 2.633.81 3.78 1.55.915.585 1.567 1.394 1.957 2.428.39 1.034.264 2.108-.378 3.222-1.237 2.175-2.726 4.045-4.466 5.61-1.742 1.564-3.574 3.037-5.498 4.415-1.923 1.38-3.86 2.665-5.806 3.858-1.948 1.194-3.95 2.348-6.012 3.46-2.336 1.328-4.684 2.574-7.043 3.74s-4.752 2.282-7.18 3.342l-1.648.716c-.093 0-.16.028-.206.08h-.07c-.64.265-1.27.504-1.89.715-.617.213-1.247.398-1.888.557-1.284.266-2.43.398-3.436.398h-.722c-.252 0-.515-.054-.79-.16h-.207c0-.053-.022-.08-.07-.08h-.067c-.504-.16-.825-.477-.962-.955-.137-.423-.114-.82.07-1.192.273-4.348.618-8.83 1.03-13.444.366-3.712.72-7.412 1.064-11.1.343-3.685.79-7.358 1.34-11.02l.55-3.817s.457-2.52.824-3.74c.457-1.54 1.213-2.772 2.267-3.7 1.052-.927 2.13-1.817 3.228-2.665 2.106-1.59 4.35-2.917 6.733-3.978 2.383-1.06 4.834-1.697 7.353-1.91.32 0 .64-.013.962-.04.32-.026.663-.04 1.03-.04 2.978-.16 5.98-.16 9.002 0 1.374.053 2.76.133 4.157.24 1.397.106 2.76.345 4.088.715l2.06.637c.69.21 1.352.53 1.994.954.412.266.835.61 1.27 1.034.436.425.7.903.79 1.432.14.585.15 1.182.035 1.79-.11.61-.305 1.18-.58 1.71zm-20.888 28.8c.092-.104.17-.21.24-.317.07-.106.15-.212.242-.318.045-.106.08-.2.103-.278.022-.08.057-.172.103-.28-.092-.317-.184-.556-.275-.715-.595-.53-1.305-.928-2.13-1.193-.916-.266-1.866-.465-2.85-.598-.987-.132-1.96-.25-2.92-.358h-.276c-.185 1.698-.344 3.408-.482 5.13-.138 1.726-.275 3.462-.413 5.213.183-.106.366-.21.55-.318l.55-.32c.182-.104.343-.184.48-.237.78-.478 1.522-.955 2.233-1.432.71-.477 1.454-1.006 2.233-1.59.09-.052.275-.186.55-.398.23-.265.48-.49.756-.676.275-.186.526-.41.756-.676l.55-.64zm-.206-25.855c-.824-.21-1.65-.37-2.473-.478-.825-.105-1.65-.21-2.474-.318l-.62 4.295c-.137.903-.264 1.79-.377 2.666-.115.876-.218 1.765-.31 2.666l2.268-1.194c.23-.158.493-.33.79-.517.298-.185.54-.33.723-.438.32-.21.628-.41.928-.597.298-.186.584-.41.86-.676.137-.053.297-.186.48-.398.228-.16.434-.33.618-.518.183-.185.39-.358.62-.517.09-.105.17-.21.24-.317.068-.106.148-.21.24-.318.274-.318.457-.557.55-.716.09-.106.182-.32.273-.638-.044-.21-.16-.477-.343-.795-.274-.265-.583-.49-.927-.676-.342-.184-.697-.357-1.064-.515zm-.068 26.253c.183-.158.344-.304.48-.437.14-.13-.045.015-.55.438h.07zM278.29 100.61c-.07.876-.355 1.858-.858 2.944-.504 1.087-1.055 2.122-1.65 3.104-.595.982-.96 1.55-1.098 1.71-.87 1.167-1.787 2.268-2.75 3.302s-1.992 2.003-3.09 2.904c-.643.584-1.365 1.128-2.166 1.63-.802.505-1.638.757-2.507.757h-10.513c-.092.372-.15.956-.172 1.75s-.058 1.38-.103 1.75h17.108c.87 0 1.26.36 1.168 1.075-.093.716-.378 1.54-.858 2.466-.48.93-1.02 1.805-1.615 2.626-.597.822-.962 1.312-1.1 1.472-.87 1.167-1.8 2.267-2.783 3.302-.986 1.034-2.005 2.002-3.058 2.904-.642.583-1.374 1.127-2.198 1.63-.825.505-1.65.756-2.474.756h-5.91c-.136 1.75-.274 3.488-.41 5.21-.138 1.725-.276 3.462-.413 5.212.09.372.067.73-.07 1.074-.137.346-.32.677-.55.995-.228.32-.48.61-.755.876s-.505.477-.687.636c-1.008.85-2.062 1.58-3.16 2.188-1.1.61-2.247 1.153-3.438 1.63-1.1.477-2.267.915-3.504 1.313-1.237.398-2.45.596-3.64.596-.963.158-1.95.024-2.956-.4-.642-.37-.825-.98-.55-1.83.183-2.49.366-4.957.55-7.397.182-2.44.39-4.906.618-7.4.32-3.71.663-7.398 1.03-11.058.366-3.66.825-7.32 1.375-10.98.183-1.165.378-2.346.584-3.54.207-1.193.492-2.347.86-3.46.502-1.38 1.258-2.493 2.267-3.342 1.007-.847 2.038-1.67 3.092-2.466 2.06-1.538 4.248-2.85 6.56-3.938 2.314-1.087 4.708-1.71 7.182-1.87h1.545s1.203.186 1.615.556h18.277c.873.002 1.274.44 1.205 1.315zM334.256 109.005c1.235 2.28 2.037 4.68 2.404 7.2.365 2.52.435 5.105.205 7.757-.457 4.455-1.73 8.42-3.812 11.894-2.085 3.474-4.615 6.483-7.593 9.03-2.98 2.545-6.242 4.654-9.792 6.324s-7.02 2.93-10.41 3.78c-2.84.742-5.68 1.033-8.52.874h-.755c-.274 0-.527-.026-.756-.08-1.283-.158-2.532-.41-3.745-.754-1.213-.345-2.394-.81-3.538-1.393-1.97-1.007-3.756-2.374-5.36-4.097-1.603-1.723-2.885-3.7-3.847-5.927-1.1-2.493-1.752-5.105-1.958-7.837-.207-2.73-.046-5.422.48-8.075.527-2.65 1.364-5.197 2.508-7.636s2.542-4.614 4.19-6.524c2.84-3.34 6.047-6.1 9.62-8.274 3.574-2.174 7.284-3.898 11.13-5.17 3.207-1.062 6.495-1.698 9.86-1.91 3.368-.212 6.63.318 9.792 1.59 2.062.85 3.95 2.057 5.67 3.62 1.716 1.564 3.125 3.434 4.226 5.61zm-28.447.317c-.734-.21-1.536-.37-2.406-.477-.092 0-.196-.013-.31-.04-.115-.026-.217-.04-.31-.04-.09.107-.16.16-.205.16l-.414.476c-.183.214-.367.427-.55.638-.183.212-.366.45-.55.716-.228.318-.457.65-.686.995-.23.344-.46.675-.688.994-2.062 3.607-3.253 7.506-3.573 11.695-.093 2.863.25 5.608 1.03 8.233.778 2.626 1.992 5 3.64 7.12 1.97 2.282 4.353 3.927 7.147 4.933.732.213 1.512.372 2.335.478.138.053.367.08.688.08.09-.106.16-.16.205-.16l.413-.477.55-.637c.18-.21.365-.45.548-.716l.688-.955c.228-.32.458-.664.687-1.035 1.924-3.394 3.093-7.133 3.505-11.217.046-.106.068-.24.068-.398.092-2.864-.252-5.622-1.03-8.274-.78-2.65-1.992-5.038-3.642-7.16-1.966-2.28-4.347-3.925-7.14-4.934zM401.935 150.693c.14.318.14.664 0 1.034-.14.372-.333.73-.584 1.074-.25.347-.525.65-.822.916-.3.266-.517.452-.654.557-1.008.848-2.06 1.577-3.16 2.188-1.1.61-2.222 1.18-3.365 1.712-1.194.477-2.384.887-3.575 1.232-1.19.345-2.404.57-3.643.677-.548 0-1.19-.025-1.923-.08-.732-.052-1.285-.424-1.648-1.113-.55-1.22-1.102-2.414-1.65-3.58-.55-1.166-1.122-2.333-1.717-3.5l-12.368-26.254c-.458.213-.904.425-1.34.636-.437.21-.905.425-1.408.636-.643 6.948-1.193 13.87-1.65 20.765-.504 1.063-1.19 1.91-2.06 2.546-.323.266-.62.505-.894.716-.277.212-.574.425-.896.636-1.146.795-2.336 1.472-3.573 2.03-1.236.556-2.496 1.046-3.78 1.47-1.007.32-2.05.585-3.124.797-1.076.21-2.143.238-3.195.08-.87 0-1.49-.373-1.854-1.115.045-.16.068-.33.068-.516v-.518c.183-2.28.355-4.534.516-6.763.16-2.228.354-4.48.585-6.762.318-3.71.66-7.424 1.03-11.138.364-3.71.8-7.398 1.306-11.058.228-1.273.433-2.545.616-3.82.184-1.27.457-2.517.825-3.738.458-1.538 1.202-2.757 2.232-3.66 1.03-.9 2.12-1.802 3.266-2.705 2.105-1.59 4.34-2.916 6.697-3.977 2.358-1.06 4.8-1.67 7.318-1.83.366-.052.71-.08 1.03-.08.32 0 .64-.026.963-.08 3.022-.052 6.045-.052 9.07 0 1.372.107 2.747.212 4.122.318 1.373.107 2.724.346 4.054.717.688.16 1.385.346 2.097.557.708.212 1.382.53 2.024.955.41.265.824.61 1.236 1.034.412.425.688.928.824 1.51.14.585.148 1.182.034 1.79-.114.612-.31 1.155-.584 1.632-1.33 2.176-2.932 4.137-4.812 5.887-.41.425-.834.81-1.27 1.154-.438.345-.884.703-1.34 1.074.503 1.063.984 2.083 1.443 3.064.455.98.938 2.002 1.44 3.063 2.382 4.986 4.74 9.958 7.077 14.917 2.34 4.962 4.676 9.934 7.013 14.92zm-36.21-37.63c-.138.9-.264 1.802-.38 2.703-.112.903-.217 1.804-.308 2.705.365-.21.743-.423 1.134-.635.39-.21.768-.424 1.135-.636.23-.16.49-.332.79-.518.298-.185.538-.33.722-.438.318-.212.62-.41.895-.597.273-.185.572-.384.893-.597.14-.16.297-.29.48-.397.23-.212.436-.398.62-.557.183-.16.388-.345.616-.558l.48-.557c.093-.105.185-.224.276-.357.092-.132.183-.25.273-.358l.206-.716c0-.212-.093-.48-.275-.797-.548-.477-1.234-.848-2.06-1.114-.78-.266-1.58-.45-2.404-.558-.824-.106-1.65-.186-2.476-.24-.272 1.33-.48 2.736-.615 4.22zM463.086 100.333c.32-.106.962-.28 1.923-.517.96-.24 1.923-.397 2.885-.478.964-.08 1.8.027 2.51.318.71.292.974.942.79 1.95-.367 2.015-.732 4.056-1.102 6.125-.364 2.07-.73 4.11-1.098 6.127-.962 5.517-1.924 10.992-2.886 16.428-.964 5.438-1.95 10.914-2.956 16.43-.504 1.062-1.168 1.91-1.992 2.545-.32.266-.63.49-.928.677-.3.186-.584.41-.858.676-2.43 1.54-4.902 2.705-7.422 3.5-.96.318-1.98.584-3.058.796-1.077.21-2.143.238-3.195.078-.822 0-1.44-.37-1.853-1.114-.093-.105-.15-.225-.173-.358-.023-.132-.08-.252-.172-.358-1.007-2.015-2.016-4.004-3.02-5.967-1.01-1.96-2.02-3.923-3.024-5.886-.413.903-.837 1.804-1.27 2.705-.437.902-.883 1.803-1.34 2.705-.413.902-.963 1.658-1.648 2.267-.688.61-1.398 1.154-2.132 1.632-2.427 1.54-4.9 2.705-7.42 3.5-.962.318-1.98.584-3.06.796-1.075.21-2.14.24-3.194.08-.823 0-1.44-.37-1.854-1.115-.46-2.12-.917-4.23-1.374-6.325-.46-2.095-.917-4.203-1.375-6.325-1.19-5.462-2.358-10.872-3.502-16.23-1.146-5.356-2.292-10.766-3.438-16.23-.09-.37-.067-.727.07-1.073.137-.345.32-.677.548-.995.23-.318.47-.61.724-.875.25-.265.49-.48.72-.637 1.008-.85 2.063-1.59 3.162-2.227 1.1-.637 2.22-1.194 3.367-1.67 1.19-.48 2.382-.89 3.572-1.234s2.405-.57 3.643-.676h.822c.367 0 .733.027 1.103.08.364.054.71.16 1.03.318.318.16.524.425.617.795l2.68 12.65c.365 1.645.723 3.276 1.064 4.893.347 1.62.7 3.25 1.066 4.893.457-.583.95-1.1 1.478-1.55.526-.45 1.087-.863 1.685-1.234 2.242-1.484 4.692-2.65 7.35-3.5 1.01-.32 2.05-.583 3.127-.795 1.076-.212 2.14-.24 3.195-.08.73 0 1.35.372 1.854 1.114.045.16.16.398.345.716.32.53.572 1.062.757 1.592.366-1.96.71-3.9 1.03-5.808s.664-3.82 1.03-5.728c.503-1.06 1.19-1.91 2.062-2.546.273-.265.56-.49.856-.676.298-.185.607-.41.93-.676 2.243-1.485 4.693-2.653 7.35-3.5zM525.887 146.557c.092.372.068.73-.068 1.073-.14.346-.32.677-.552.995-.23.318-.492.61-.79.875-.3.266-.537.478-.722.636-.962.85-2.004 1.58-3.126 2.188-1.123.61-2.257 1.154-3.4 1.63-1.146.532-2.325.956-3.538 1.274-1.216.318-2.416.53-3.608.635-.23 0-.516.013-.858.04-.344.026-.71 0-1.1-.08-.39-.08-.73-.198-1.03-.357-.298-.16-.49-.425-.584-.796-.458-1.697-.893-3.42-1.305-5.17s-.85-3.5-1.306-5.252c-.32-1.325-.643-2.638-.962-3.938-.32-1.3-.644-2.612-.962-3.938h-8.727c-.506 1.857-.986 3.727-1.443 5.608-.46 1.884-.918 3.753-1.376 5.61-.228.848-.776 1.604-1.645 2.267-.87.663-1.604 1.207-2.2 1.63-1.145.743-2.335 1.406-3.572 1.99-1.235.583-2.496 1.086-3.78 1.51-.272.106-.903.28-1.89.518-.982.24-1.968.385-2.953.438-.983.053-1.832-.067-2.542-.357-.71-.292-.948-.94-.722-1.95 1.604-6.364 3.22-12.69 4.844-18.974 1.626-6.285 3.446-12.53 5.462-18.736.276-.795.54-1.59.79-2.387.252-.796.54-1.564.86-2.308.73-1.802 1.786-3.34 3.16-4.614 1.28-1.22 2.634-2.333 4.054-3.342 1.42-1.007 2.886-1.935 4.398-2.784 1.512-.848 3.103-1.604 4.773-2.268 1.672-.663 3.332-1.126 4.98-1.392 1.147-.21 2.325-.36 3.54-.438 1.214-.08 2.348.173 3.4.756 1.055.53 1.796 1.42 2.232 2.666.435 1.247.835 2.453 1.2 3.62.46 1.485.883 2.958 1.272 4.415l1.2 4.497c1.514 5.676 2.98 11.35 4.398 17.026 1.424 5.675 2.823 11.403 4.197 17.184zm-24.874-17.504c-.366-1.325-.71-2.65-1.03-3.978-.32-1.325-.664-2.678-1.03-4.058-.23-.742-.423-1.484-.584-2.228-.16-.743-.356-1.485-.584-2.23-.367 1.38-.746 2.733-1.134 4.06-.392 1.325-.77 2.652-1.136 3.977l-1.234 4.535c.23-.052.422-.08.584-.08H501.013zM591.436 150.693c.14.318.14.664 0 1.034-.137.372-.333.73-.584 1.074-.252.347-.526.65-.823.916-.3.266-.518.452-.654.557-1.008.848-2.06 1.577-3.16 2.188-1.1.61-2.223 1.18-3.367 1.712-1.192.477-2.382.887-3.572 1.232-1.192.345-2.405.57-3.644.677-.55 0-1.19-.025-1.924-.08-.732-.052-1.282-.424-1.648-1.113-.55-1.22-1.1-2.414-1.647-3.58-.55-1.166-1.124-2.333-1.72-3.5l-12.367-26.254c-.458.213-.904.425-1.34.636-.436.21-.905.425-1.408.636-.642 6.948-1.19 13.87-1.65 20.765-.503 1.063-1.188 1.91-2.06 2.546-.32.266-.618.505-.895.716-.274.212-.572.425-.893.636-1.146.795-2.337 1.472-3.573 2.03-1.238.556-2.498 1.046-3.78 1.47-1.007.32-2.05.585-3.125.797-1.077.21-2.144.238-3.195.08-.87 0-1.49-.373-1.854-1.115.045-.16.068-.33.068-.516v-.518c.183-2.28.354-4.534.514-6.763.162-2.228.355-4.48.586-6.762.32-3.71.662-7.424 1.03-11.138.366-3.71.8-7.398 1.306-11.058.23-1.273.437-2.545.617-3.82.185-1.27.458-2.517.825-3.738.458-1.538 1.202-2.757 2.232-3.66 1.03-.9 2.118-1.802 3.265-2.705 2.105-1.59 4.338-2.916 6.698-3.977 2.356-1.06 4.798-1.67 7.316-1.83.367-.052.71-.08 1.03-.08.32 0 .642-.026.962-.08 3.023-.052 6.048-.052 9.07 0l4.123.318s2.724.346 4.053.717c.688.16 1.386.346 2.096.557.708.212 1.385.53 2.025.955.413.265.825.61 1.236 1.034.414.425.69.928.825 1.51.14.585.15 1.182.035 1.79-.114.612-.31 1.155-.585 1.632-1.328 2.176-2.932 4.137-4.81 5.887-.412.425-.836.81-1.27 1.154-.438.345-.883.703-1.34 1.074.504 1.063.984 2.083 1.443 3.064.457.98.938 2.002 1.44 3.063 2.382 4.986 4.74 9.958 7.078 14.917 2.338 4.962 4.675 9.934 7.01 14.92zm-36.21-37.63c-.138.9-.264 1.802-.377 2.703-.116.903-.22 1.804-.31 2.705.364-.21.742-.423 1.132-.635.39-.21.77-.424 1.134-.636.23-.16.493-.332.79-.518.298-.185.538-.33.723-.438.318-.212.618-.41.893-.597.274-.185.572-.384.894-.597.138-.16.298-.29.48-.397.23-.212.434-.398.618-.557.183-.16.39-.345.62-.558l.48-.557c.09-.105.18-.224.273-.357.09-.132.183-.25.273-.358l.208-.716c0-.212-.094-.48-.275-.797-.55-.477-1.235-.848-2.062-1.114-.78-.266-1.58-.45-2.404-.558-.823-.106-1.647-.186-2.475-.24-.27 1.33-.478 2.736-.613 4.22zM670.064 95.306c.48 1.727.587 3.59.316 5.593-.27 2.002-.738 3.796-1.4 5.385-.966 2.417-2.123 4.696-3.48 6.836-1.354 2.142-2.844 4.196-4.47 6.164-1.626 1.967-3.313 3.85-5.06 5.645-1.748 1.795-3.49 3.52-5.24 5.178-3.67 3.522-7.467 6.836-11.38 9.944-3.914 3.107-7.89 6.11-11.925 9.01-1.745 1.313-3.507 2.574-5.282 3.782-1.776 1.208-3.566 2.4-5.377 3.574-2.948 1.934-6.2 3.417-9.754 4.454-1.264.414-2.604.76-4.02 1.035-1.414.274-2.815.345-4.2.208-.66 0-1.264-.244-1.806-.725-.3-.207-.48-.453-.542-.726-.06 0-.093-.036-.093-.104-.116-.414-.09-.863.094-1.347.12-1.932.256-3.848.405-5.748.148-1.898.315-3.814.496-5.748.42-4.833.846-9.648 1.265-14.45.422-4.797.935-9.58 1.537-14.345.3-2.07.587-4.125.857-6.163.27-2.037.588-4.057.95-6.06.24-1.312.54-2.676.9-4.092.36-1.415.993-2.605 1.897-3.574 2.89-2.9 6.202-5.438 9.937-7.612 3.732-2.176 7.466-3.538 11.2-4.092 1.627-.275 3.267-.5 4.924-.673 1.655-.172 3.298-.328 4.923-.467 4.456-.344 8.973-.466 13.55-.362 4.577.104 9.032.95 13.368 2.538 1.507.554 2.98 1.398 4.428 2.538 1.45 1.14 2.443 2.607 2.986 4.402zm-36.13 32.938c1.387-1.52 2.727-3.09 4.02-4.713 1.296-1.62 2.516-3.33 3.66-5.126.842-1.38 1.563-2.85 2.167-4.403.603-1.552.996-3.157 1.175-4.814 0-.966-.105-1.917-.315-2.848-.213-.932-.588-1.777-1.13-2.538-.723-.69-1.505-1.26-2.348-1.71-.844-.447-1.717-.844-2.62-1.19-2.71-.69-5.48-1.104-8.31-1.243-.24-.07-.663-.104-1.268-.104h-1.806c-.24 1.174-.438 2.296-.586 3.366-.15 1.07-.316 2.19-.496 3.365-.727 5.386-1.34 10.77-1.852 16.158-.515 5.386-1.01 10.772-1.493 16.158l2.17-1.863c.963-.76 1.897-1.554 2.8-2.382.904-.83 1.777-1.658 2.62-2.486.302-.276.557-.518.768-.726.21-.207.466-.448.77-.725l.09-.104c.3-.345.633-.69.993-1.036.363-.345.69-.69.994-1.036z"/></g></svg>