<svg xmlns="http://www.w3.org/2000/svg" width="326" height="71" viewBox="175.25 117.688 326 71"><g fill="#5D5D5D"><path d="M274.312 146.583c-.87.48-1.88.72-3.034.72s-2.17-.24-3.05-.72-1.59-1.163-2.134-2.05c-.545-.887-.952-1.928-1.222-3.123-.27-1.194-.405-2.54-.405-4.038 0-3.154.583-5.594 1.75-7.318 1.168-1.724 2.854-2.586 5.06-2.586 2.206 0 3.884.86 5.033 2.58 1.148 1.72 1.723 4.162 1.723 7.324 0 1.498-.133 2.843-.398 4.038s-.668 2.235-1.208 3.123c-.54.888-1.245 1.57-2.115 2.05zm-3.048-.73c1.4 0 2.53-.773 3.392-2.316s1.29-3.62 1.29-6.227c0-2.557-.43-4.595-1.29-6.113-.86-1.518-1.986-2.277-3.377-2.277-1.402 0-2.532.762-3.393 2.284-.86 1.522-1.286 3.567-1.277 6.132 0 2.607.428 4.68 1.284 6.214.855 1.534 1.98 2.302 3.37 2.302zM286.383 147v-17.11c-.293.194-.757.434-1.394.72-.637.286-1.27.53-1.902.732v-1.363c1.922-.817 3.126-1.4 3.61-1.755h1.442V147h-1.757zM297.836 147.1c-.485 0-.85-.13-1.098-.39s-.37-.568-.37-.92c0-.346.123-.648.37-.91s.612-.39 1.098-.39c.504 0 .88.13 1.126.39s.37.564.37.91c0 .353-.123.66-.37.92s-.622.39-1.126.39zM315.358 146.583c-.87.48-1.88.72-3.034.72s-2.17-.24-3.05-.72-1.59-1.163-2.134-2.05c-.545-.887-.952-1.928-1.222-3.123-.27-1.194-.405-2.54-.405-4.038 0-3.154.583-5.594 1.75-7.318 1.168-1.724 2.854-2.586 5.06-2.586 2.206 0 3.884.86 5.033 2.58 1.148 1.72 1.723 4.162 1.723 7.324 0 1.498-.134 2.843-.4 4.038s-.667 2.235-1.207 3.123c-.54.888-1.245 1.57-2.115 2.05zm-3.048-.73c1.4 0 2.53-.773 3.392-2.316s1.29-3.62 1.29-6.227c0-2.557-.43-4.595-1.29-6.113-.86-1.518-1.986-2.277-3.377-2.277-1.4 0-2.53.762-3.392 2.284-.86 1.522-1.286 3.567-1.277 6.132 0 2.607.428 4.68 1.284 6.214.855 1.534 1.98 2.302 3.37 2.302zM327.43 147v-17.11c-.294.194-.758.434-1.395.72-.636.286-1.27.53-1.9.732v-1.363c1.92-.817 3.125-1.4 3.61-1.755h1.44V147h-1.756zM338.882 147.1c-.485 0-.85-.13-1.098-.39s-.37-.568-.37-.92c0-.346.123-.648.37-.91s.612-.39 1.098-.39c.504 0 .88.13 1.126.39s.37.564.37.91c0 .353-.123.66-.37.92s-.622.39-1.126.39zM346.82 147l-.412-1.603 7.126-7.62c.934-1.02 1.63-1.904 2.087-2.657.46-.753.688-1.487.688-2.202 0-1.194-.307-2.11-.92-2.745-.613-.635-1.528-.953-2.746-.953-.87 0-1.723.12-2.56.36-.838.24-1.522.59-2.054 1.054l-.646-1.224c1.145-1.01 2.92-1.514 5.328-1.514 1.748 0 3.128.442 4.14 1.325 1.01.884 1.517 2.045 1.517 3.483 0 .967-.268 1.92-.803 2.858s-1.417 2.06-2.644 3.363l-6.18 6.523h9.79l-.107 1.554H346.82zM375.12 146.583c-.87.48-1.88.72-3.033.72s-2.17-.24-3.05-.72-1.59-1.163-2.134-2.05c-.545-.887-.952-1.928-1.222-3.123-.27-1.194-.404-2.54-.404-4.038 0-3.154.583-5.594 1.75-7.318 1.168-1.724 2.854-2.586 5.06-2.586 2.206 0 3.884.86 5.033 2.58 1.147 1.72 1.722 4.162 1.722 7.324 0 1.498-.133 2.843-.398 4.038s-.668 2.235-1.208 3.123c-.54.888-1.246 1.57-2.115 2.05zm-3.048-.73c1.4 0 2.53-.773 3.392-2.316s1.29-3.62 1.29-6.227c0-2.557-.43-4.595-1.29-6.113-.86-1.518-1.986-2.277-3.377-2.277-1.4 0-2.53.762-3.392 2.284-.86 1.522-1.286 3.567-1.277 6.132 0 2.607.428 4.68 1.284 6.214.856 1.534 1.98 2.302 3.37 2.302zM387.19 147v-17.11c-.292.194-.756.434-1.393.72-.636.286-1.27.53-1.9.732v-1.363c1.92-.817 3.125-1.4 3.61-1.755h1.44V147h-1.756zM402.915 147.29c-1.218 0-2.318-.19-3.302-.574-.984-.383-1.778-.97-2.383-1.76-.604-.79-.906-1.724-.906-2.8 0-1.237.417-2.333 1.25-3.288s1.995-1.62 3.487-2c-1.372-.345-2.432-.88-3.178-1.608s-1.12-1.625-1.12-2.694c0-1.43.568-2.565 1.704-3.407 1.135-.842 2.622-1.263 4.462-1.263 1.812 0 3.274.418 4.387 1.255 1.112.837 1.67 1.975 1.67 3.413 0 1.068-.358 1.966-1.072 2.694s-1.712 1.263-2.993 1.607c1.4.38 2.503 1.045 3.31 2s1.208 2.05 1.208 3.287c0 .808-.172 1.542-.516 2.202-.343.66-.81 1.2-1.4 1.62-.59.422-1.28.746-2.066.973s-1.635.34-2.54.34zm0-1.325c1.336 0 2.448-.34 3.337-1.022.888-.68 1.33-1.585 1.33-2.713 0-1.21-.42-2.214-1.262-3.01-.843-.794-1.978-1.355-3.405-1.684-1.428.336-2.574.902-3.44 1.697-.864.795-1.297 1.79-1.297 2.984 0 1.127.453 2.033 1.36 2.72s2.03 1.028 3.377 1.028zm0-9.765c2.847-.513 4.27-1.733 4.27-3.66 0-1.05-.416-1.862-1.25-2.434-.832-.572-1.84-.858-3.02-.858-1.19 0-2.208.288-3.055.864s-1.27 1.386-1.27 2.43c0 1.908 1.44 3.128 4.325 3.658zM180.67 180v-18.774h1.758V180h-1.757zM190.586 180v-18.774h2.046l11.245 15.835.728.922c-.064-2.59-.096-4.202-.096-4.833v-11.924h1.66V180h-2.087l-11.218-15.81-.7-.92c.073 1.892.11 3.523.11 4.895V180h-1.69zM218.214 180v-17.387h-6.427v-1.388h14.637v1.388h-6.426V180h-1.784zM232.042 180v-18.774h11.383l-.07 1.337H233.8v7.066h9.09v1.374h-9.09v7.646h9.858l-.15 1.35H232.04zM250.73 180v-18.774h5.82c.743 0 1.386.013 1.93.038.545.025 1.102.08 1.67.164s1.05.195 1.447.334c.398.14.778.326 1.14.562.362.235.652.52.872.852.22.333.39.73.514 1.192.124.463.186.988.186 1.577 0 1.153-.307 2.142-.92 2.966s-1.552 1.384-2.814 1.68c.55 1.033.96 1.82 1.235 2.358l3.352 7.053h-2.046l-2.884-6.42c-.19-.422-.622-1.33-1.29-2.727-.184.025-.86.038-2.032.038l-4.42-.075V180h-1.76zm6.934-10.447c1.82 0 3.094-.292 3.817-.877.724-.584 1.086-1.486 1.086-2.706 0-1.093-.328-1.933-.982-2.517-.654-.585-1.77-.877-3.343-.877h-5.752v6.94c2.15.025 3.876.037 5.176.037zM272.042 180v-18.774h2.046l11.245 15.835.728.922c-.063-2.59-.095-4.202-.095-4.833v-11.924h1.66V180h-2.086l-11.22-15.81-.7-.92c.074 1.892.11 3.523.11 4.895V180h-1.688zM293.216 180l7.978-18.774h1.69L310.57 180h-1.81l-2.61-6.37h-8.47l-2.72 6.37h-1.744zm5.136-7.558h7.167c-2.06-5.434-3.228-8.63-3.502-9.59-.11.37-.472 1.355-1.085 2.953s-1.2 3.104-1.758 4.517l-.823 2.12zM319.705 180v-17.387h-6.427v-1.388h14.637v1.388h-6.426V180h-1.785zM333.685 180v-18.774h1.757V180h-1.757zM352.29 180.29c-1.556 0-2.944-.237-4.166-.713-1.223-.476-2.225-1.144-3.007-2.006-.783-.86-1.378-1.88-1.785-3.06s-.61-2.477-.61-3.897c0-2.98.834-5.342 2.505-7.092 1.67-1.748 4.03-2.623 7.078-2.623 2.993 0 5.327.882 7.003 2.644 1.675 1.763 2.513 4.124 2.513 7.085 0 1.39-.205 2.67-.617 3.842-.412 1.174-1.01 2.193-1.792 3.06-.78.867-1.782 1.544-3 2.032-1.218.486-2.59.73-4.12.73zm0-1.325c1.685 0 3.102-.353 4.25-1.06 1.15-.706 1.99-1.676 2.527-2.908.535-1.23.803-2.698.803-4.397 0-2.657-.64-4.714-1.922-6.17-1.282-1.455-3.163-2.182-5.644-2.182-2.5 0-4.4.725-5.705 2.176s-1.958 3.51-1.958 6.176c0 2.583.647 4.623 1.943 6.12 1.296 1.497 3.198 2.245 5.706 2.245zM368.947 180v-18.774h2.046l11.245 15.835.728.922c-.064-2.59-.096-4.202-.096-4.833v-11.924h1.66V180h-2.086l-11.218-15.81-.7-.92c.073 1.892.11 3.523.11 4.895V180h-1.69zM390.12 180l7.98-18.774h1.688l7.69 18.774h-1.813l-2.608-6.37h-8.472l-2.72 6.37h-1.744zm5.137-7.558h7.167c-2.06-5.434-3.227-8.63-3.5-9.59-.11.37-.473 1.355-1.086 2.953s-1.2 3.104-1.758 4.517l-.823 2.12zM413.067 180v-18.774h1.77v17.35h9.187L423.94 180h-10.873zM439.146 180v-18.774h5.533c1.665 0 3.154.18 4.47.542 1.312.362 2.454.916 3.425 1.66.97.744 1.716 1.725 2.237 2.94.522 1.214.783 2.634.783 4.257 0 3.07-.92 5.4-2.76 6.99s-4.417 2.385-7.73 2.385h-5.96zm1.757-1.35h4.01c2.837 0 5-.667 6.486-2 1.487-1.334 2.23-3.32 2.23-5.962 0-1.446-.208-2.696-.625-3.747-.416-1.05-1.027-1.894-1.833-2.528-.805-.636-1.757-1.103-2.855-1.4-1.1-.3-2.366-.45-3.804-.45h-3.61v16.088zM459.853 180l7.978-18.774h1.69L477.208 180h-1.812l-2.608-6.37h-8.472l-2.72 6.37h-1.743zm5.135-7.558h7.167c-2.06-5.434-3.227-8.63-3.5-9.59-.11.37-.473 1.355-1.086 2.953s-1.2 3.104-1.76 4.517l-.822 2.12zM486.85 180v-7.432l-6.812-11.343h1.91l5.916 9.904 6.11-9.905h1.937l-7.263 11.292V180h-1.798z"/></g></svg>